<svg xmlns="http://www.w3.org/2000/svg" width="332" height="187"><defs><linearGradient id="a" x1=".5" x2=".5" y2=".895" gradientUnits="objectBoundingBox"><stop offset="0" stop-opacity="0"/><stop offset="1"/></linearGradient><style>.a{fill:none;stroke:#424854;stroke-dasharray:5 2;opacity:.368}.b{fill:#c0a961}.c{fill:#10a047}.d{fill:#414855}</style></defs><g transform="translate(-1060 -191)"><rect width="332" height="187" rx="10" transform="translate(1060 191)"/><path class="a" d="M1081.944 210.703h289.612M1081.944 233.251h289.612M1081.944 256.504h289.612M1081.944 279.758h289.612"/><g transform="translate(1080.887 222.109)"><rect class="b" width="6" height="52" rx="3" transform="translate(.113 21.891)"/><rect class="c" width="6" height="74" rx="3" transform="translate(9.113 -.109)"/><rect class="d" width="5" height="25" rx="2.5" transform="translate(20.113 48.891)"/></g><g transform="translate(1110.745 230.468)"><rect class="b" width="5" height="48" rx="2.5" transform="translate(.255 17.532)"/><rect class="d" width="5" height="66" rx="2.5" transform="translate(20.255 -.468)"/><rect class="c" width="6" height="33" rx="3" transform="translate(9.255 32.532)"/></g><g transform="translate(1347.222 231.663)"><rect class="b" width="6" height="48" rx="3" transform="translate(-.221 16.337)"/><rect class="d" width="6" height="64" rx="3" transform="translate(18.779 .337)"/><rect class="c" width="6" height="33" rx="3" transform="translate(9.779 31.337)"/></g><g transform="translate(1257.647 230.468)"><rect class="b" width="6" height="48" rx="3" transform="translate(.353 17.532)"/><rect class="d" width="6" height="66" rx="3" transform="translate(20.353 -.468)"/><rect class="c" width="6" height="33" rx="3" transform="translate(10.353 32.532)"/></g><g transform="translate(1139.409 203)"><rect class="b" width="6" height="93" rx="3" transform="translate(-.408)"/><rect class="c" width="6" height="74" rx="3" transform="translate(10.592 19)"/><rect class="d" width="6" height="63" rx="3" transform="translate(20.592 30)"/></g><g transform="translate(1287.506 212.554)"><rect class="b" width="5" height="83" rx="2.5" transform="translate(.495 .445)"/><rect class="c" width="6" height="77" rx="3" transform="translate(10.495 6.445)"/><rect class="d" width="5" height="69" rx="2.5" transform="translate(20.495 14.445)"/></g><g transform="translate(1169.267 257.939)"><rect class="b" width="6" height="23" rx="3" transform="translate(-.267 15.062)"/><rect class="c" width="6" height="38" rx="3" transform="translate(10.733 .062)"/><rect class="d" width="6" height="38" rx="3" transform="translate(20.733 .062)"/></g><g transform="translate(1317.363 259.133)"><rect class="b" width="6" height="21" rx="3" transform="translate(-.362 15.867)"/><rect class="c" width="5" height="37" rx="2.5" transform="translate(10.638 -.133)"/><rect class="d" width="4" height="37" rx="2" transform="translate(20.638 -.133)"/></g><g transform="translate(1199.125 208.971)"><rect class="b" width="6" height="61" rx="3" transform="translate(-.125 26.029)"/><rect class="c" width="5" height="87" rx="2.5" transform="translate(10.875 .029)"/><rect class="d" width="5" height="30" rx="2.5" transform="translate(19.875 57.029)"/></g><g transform="translate(1228.983 217.333)"><rect class="b" width="5" height="54" rx="2.5" transform="translate(.018 24.668)"/><rect class="d" width="6" height="79" rx="3" transform="translate(19.018 -.332)"/><rect class="c" width="6" height="45" rx="3" transform="translate(10.018 33.668)"/></g><path transform="translate(1060 224)" fill="url(#a)" d="M0 0h332v72H0z"/></g></svg>