<svg xmlns="http://www.w3.org/2000/svg" width="20.386" height="20.941" viewBox="0 0 20.386 20.941">
  <g id="icon_image_settings_24" data-name="icon/image/settings/24" transform="translate(-0.81 -0.53)">
    <path id="icon-color" d="M19.25,11.57V10.422l1.44-1.267a1.5,1.5,0,0,0,.285-1.9l-1.77-3a1.5,1.5,0,0,0-1.778-.668L15.6,4.2a8.25,8.25,0,0,0-.982-.57l-.375-1.89A1.5,1.5,0,0,0,12.748.53H9.23a1.5,1.5,0,0,0-1.5,1.207l-.375,1.89a8.25,8.25,0,0,0-1,.563L4.573,3.545a1.5,1.5,0,0,0-1.778.7l-1.77,3a1.5,1.5,0,0,0,.308,1.875L2.75,10.43v1.148l-1.418,1.26a1.5,1.5,0,0,0-.308,1.913l1.77,3a1.5,1.5,0,0,0,1.778.667L6.395,17.8a8.25,8.25,0,0,0,.983.57l.375,1.89a1.5,1.5,0,0,0,1.5,1.207h3.54a1.5,1.5,0,0,0,1.5-1.207l.375-1.89a8.25,8.25,0,0,0,1-.562l1.815.615A1.5,1.5,0,0,0,19.2,17.75l1.77-3a1.5,1.5,0,0,0-.308-1.875ZM17.907,17l-2.572-.87A6.75,6.75,0,0,1,13.3,17.3L12.77,20H9.23L8.7,17.337A6.825,6.825,0,0,1,6.68,16.16L4.093,17l-1.77-3L4.37,12.208a6.7,6.7,0,0,1,0-2.348L2.322,8l1.77-3,2.572.87A6.75,6.75,0,0,1,8.7,4.7L9.23,2h3.54L13.3,4.662A6.825,6.825,0,0,1,15.32,5.84L17.907,5l1.77,3L17.63,9.8a6.69,6.69,0,0,1,0,2.347L19.677,14ZM11,15.5A4.5,4.5,0,1,1,15.5,11,4.455,4.455,0,0,1,11,15.5ZM11,8a2.933,2.933,0,0,0-3,3,2.933,2.933,0,0,0,3,3,2.933,2.933,0,0,0,3-3,2.933,2.933,0,0,0-3-3Z" fill="#fff"/>
  </g>
</svg>
