<?xml version="1.0" encoding="utf-8"?>
<!-- Generator: Adobe Illustrator 27.1.0, SVG Export Plug-In . SVG Version: 6.00 Build 0)  -->
<svg version="1.1" id="logo" xmlns="http://www.w3.org/2000/svg" xmlns:xlink="http://www.w3.org/1999/xlink" x="0px" y="0px"
	 viewBox="0 0 157.1 88.5" style="enable-background:new 0 0 157.1 88.5;" xml:space="preserve">
<style type="text/css">
	.st0{clip-path:url(#SVGID_00000008145061235408824960000004980705301594901643_);}
	.st1{fill:#FFFFFF;}
	.st2{fill:#F5834C;}
	.st3{clip-path:url(#SVGID_00000008145061235408824960000004980705301594901643_);fill:#FFFFFF;}
</style>
<g>
	<defs>
		<rect id="SVGID_1_" width="157.1" height="88.5"/>
	</defs>
	<clipPath id="SVGID_00000027565964421887474590000009880598312525811344_">
		<use xlink:href="#SVGID_1_"  style="overflow:visible;"/>
	</clipPath>
	<g id="Group_2529" style="clip-path:url(#SVGID_00000027565964421887474590000009880598312525811344_);">
		<path id="Path_1416" class="st1" d="M17.9,56.2h5.2c4.9,0,8.3,3.4,8.3,7.8v0c0,4.4-3.4,7.9-8.3,7.9h-5.2V56.2z M23.1,70.9
			c4.4,0,7.1-3,7.1-6.7v0c0-3.7-3-6.8-6.7-6.8c-0.1,0-0.3,0-0.4,0h-4v13.6H23.1z"/>
		<rect id="Rectangle_817" x="38.2" y="56.2" class="st1" width="1.2" height="15.7"/>
		<path id="Path_1417" class="st1" d="M46.7,56.2h1.1l10.8,13.7V56.2h1.1v15.7h-0.9L47.8,58v13.9h-1.1V56.2"/>
		<path id="Path_1418" class="st1" d="M67.1,56.2h6.5c1.5-0.1,3,0.4,4.1,1.4c0.7,0.7,1,1.6,1,2.5v0c0,1.7-1.1,3.2-2.7,3.7
			c1.9,0.5,3.6,1.6,3.6,3.8v0c0,2.6-2.2,4.3-5.6,4.3h-6.8L67.1,56.2z M73.4,63.5c2.3,0,4-1.1,4-3.2v0c0-1.7-1.4-2.9-4-2.9h-5.3v6.2
			L73.4,63.5L73.4,63.5z M73.9,70.9c2.7,0,4.4-1.2,4.4-3.2v0c0-2-1.7-3.1-4.8-3.1h-5.3v6.3L73.9,70.9L73.9,70.9z"/>
		<path id="Path_1419" class="st1" d="M85.6,65.4v-9.2h1.2v9.1c0,3.7,2,5.9,5.3,5.9c3.2,0,5.2-2,5.2-5.7v-9.2h1.2v9
			c0,4.5-2.6,6.9-6.4,6.9S85.6,69.8,85.6,65.4"/>
		<path id="Path_1420" class="st1" d="M105.4,56.2h6.6c1.6-0.1,3.2,0.5,4.4,1.6c0.8,0.8,1.2,1.8,1.2,2.9v0c0,2.6-2,4.1-4.6,4.5
			l5.2,6.7h-1.5l-5-6.5h-5.1V72h-1.2V56.2z M111.9,64.4c2.6,0,4.6-1.3,4.6-3.6v0c0-2.1-1.7-3.4-4.5-3.4h-5.4v7.1L111.9,64.4z"/>
		<path id="Path_1421" class="st1" d="M123.5,64.1L123.5,64.1c0-4.3,3.1-8.1,7.8-8.1c2.1-0.1,4.2,0.7,5.8,2l-0.8,0.9
			c-1.4-1.3-3.2-2-5.1-1.9c-3.8,0-6.5,3.2-6.5,7v0c0,4,2.5,7.1,6.7,7.1c1.8,0,3.6-0.7,5-1.8v-4.5h-5.3v-1.1h6.4v6
			c-1.7,1.5-3.9,2.3-6.2,2.3C126.5,72.2,123.5,68.5,123.5,64.1"/>
		<path id="Path_1422" class="st1" d="M144.4,56.2h1.2v7.3h10v-7.3h1.2v15.7h-1.2v-7.4h-10v7.4h-1.2V56.2z"/>
		<rect id="Rectangle_818" x="8.6" y="79.5" class="st1" width="1.6" height="8.9"/>
		<path id="Path_1423" class="st1" d="M13.2,79.5h1.5l4.8,6.1v-6.1h1.5v8.9h-1.3l-4.9-6.3v6.3h-1.5L13.2,79.5L13.2,79.5z"/>
		<path id="Path_1424" class="st1" d="M23,79.5h1.7l2.7,6.8l2.7-6.8h1.7l-3.7,8.9h-1.4L23,79.5z"/>
		<path id="Path_1425" class="st1" d="M33.9,79.5h6.6V81h-5v2.3h4.4v1.4h-4.4v2.4h5.1v1.4h-6.6V79.5z"/>
		<path id="Path_1426" class="st1" d="M42.5,87.1l0.9-1.1c0.7,0.7,1.7,1.1,2.8,1.2c1,0,1.6-0.4,1.6-1.1v0c0-0.6-0.3-1-2-1.4
			c-1.9-0.4-3-1-3-2.6v0c0-1.5,1.3-2.6,3-2.6c1.2,0,2.3,0.4,3.2,1.1l-0.8,1.2c-0.7-0.6-1.5-0.9-2.4-0.9c-0.9,0-1.5,0.5-1.5,1.1v0
			c0,0.7,0.4,1,2.1,1.4c1.9,0.4,2.9,1.1,2.9,2.6v0c0,1.7-1.3,2.6-3.2,2.6C44.8,88.6,43.5,88,42.5,87.1"/>
		<path id="Path_1427" class="st1" d="M53.8,81H51v-1.5h7.2V81h-2.8v7.4h-1.6V81z"/>
		<path id="Path_1428" class="st1" d="M60.5,79.5h1.7l2.7,4.2l2.7-4.2h1.7v8.9h-1.6V82l-2.8,4.2h0L62,82.1v6.3h-1.5V79.5z"/>
		<path id="Path_1429" class="st1" d="M72.1,79.5h6.6V81h-5v2.3h4.4v1.4h-4.4v2.4h5.1v1.4h-6.6V79.5z"/>
		<path id="Path_1430" class="st1" d="M81.3,79.5h1.5l4.8,6.1v-6.1H89v8.9h-1.3l-4.9-6.3v6.3h-1.5L81.3,79.5z"/>
		<path id="Path_1431" class="st1" d="M94.1,81h-2.8v-1.5h7.2V81h-2.8v7.4h-1.6V81z"/>
		<path id="Path_1432" class="st1" d="M107.4,81h-2.8v-1.5h7.2V81H109v7.4h-1.6L107.4,81z"/>
		<path id="Path_1433" class="st1" d="M114.1,79.5h4c0.9,0,1.9,0.3,2.6,0.9c0.5,0.5,0.8,1.2,0.7,1.9v0c0,1.3-0.8,2.4-2.1,2.7
			l2.4,3.4h-1.9l-2.2-3.1h-2v3.1h-1.6V79.5z M117.9,83.9c1.1,0,1.8-0.6,1.8-1.5v0c0-1-0.7-1.5-1.9-1.5h-2.3v3L117.9,83.9z"/>
		<path id="Path_1434" class="st1" d="M123.7,84.7v-5.1h1.6v5c0,1.7,0.8,2.5,2.2,2.5c1.4,0,2.2-0.8,2.2-2.5v-5.1h1.6v5
			c0,2.6-1.5,4-3.8,4C125.2,88.6,123.7,87.3,123.7,84.7"/>
		<path id="Path_1435" class="st1" d="M133.5,87.1l0.9-1.1c0.7,0.7,1.7,1.1,2.8,1.2c1,0,1.6-0.4,1.6-1.1v0c0-0.6-0.3-1-2-1.4
			c-1.9-0.4-3-1-3-2.6v0c0-1.5,1.3-2.6,3-2.6c1.2,0,2.3,0.4,3.2,1.1l-0.8,1.2c-0.7-0.6-1.5-0.9-2.4-0.9c-0.9,0-1.5,0.5-1.5,1.1v0
			c0,0.7,0.4,1,2.1,1.4c1.9,0.4,2.9,1.1,2.9,2.6v0c0,1.7-1.3,2.6-3.2,2.6C135.8,88.6,134.5,88,133.5,87.1"/>
		<path id="Path_1436" class="st1" d="M144.9,81H142v-1.5h7.2V81h-2.8v7.4h-1.6V81z"/>
		<path id="Path_1437" class="st2" d="M140.4,38.5v-5.8c0-0.3-0.2-0.5-0.5-0.5c0,0,0,0,0,0c-0.4,0-0.8-0.1-1.2-0.3
			c-0.3-0.3-0.4-0.6-0.6-0.9c-0.1-0.2-0.2-0.3-0.4-0.4c-0.7,0-1.5-0.3-2.1-0.6c-0.6-0.9-1.2-1.8-1.7-2.7c-0.1-0.3-0.9-2.2-2.7-2.2
			c-0.1,0-0.1,0-0.1,0v-2.9c0-0.2-0.2-0.4-0.4-0.5c-0.7-0.2-1.4-0.8-1.7-1.5c-0.8-1.8-2.4-3.1-4.4-3.3c-1-0.2-1.1-1.8-1.1-1.8
			c0,0,0,0,0-0.1c-0.1-0.6-0.6-1.8-1.8-1.8s-1.7,1.2-1.8,1.8c0,0,0,0,0,0.1c0,0-0.1,1.6-1.1,1.8c-1.9,0.3-3.6,1.5-4.4,3.3
			c-0.3,0.7-0.9,1.3-1.6,1.5c-0.2,0-0.3,0.1-0.3,0.3c-0.1,0-0.2,0.1-0.2,0.2l-1.3,2.8h-4v-3.3h0.8c0.3,0,0.5-0.2,0.5-0.5
			c0-0.1,0-0.2-0.1-0.2l-1.3-2.3c-0.2-0.2-0.5-0.3-0.7-0.2c-0.1,0-0.1,0.1-0.2,0.2l-1.3,2.3c-0.1,0.2,0,0.5,0.2,0.7
			c0.1,0,0.2,0.1,0.2,0.1h0.8V25h-0.1l-1.9-1.4v-10h0.6v-1h-1c-0.1-1.3-0.6-2.5-1.4-3.5c-0.7-0.7-1.6-1.1-2.6-1.2V4.1h1.1v-1h-1.1
			V1.4h-1v1.8h-1.1v1h1.1v3.8c-1,0.1-1.9,0.5-2.5,1.2c-0.8,1-1.3,2.2-1.4,3.5h-1v1h0.7v10l-2,1.5h-0.2v-3.3h0.8
			c0.3,0,0.5-0.2,0.5-0.5c0-0.1,0-0.2-0.1-0.2l-1.3-2.3c-0.2-0.2-0.5-0.3-0.7-0.2c-0.1,0-0.1,0.1-0.2,0.2L90.1,21
			c-0.1,0.2,0,0.5,0.2,0.7c0.1,0,0.2,0.1,0.2,0.1h0.8V25h-4.4l-0.3-1.2c-0.1-0.2-0.2-0.4-0.5-0.4h-0.6V9.7c0.3,0,0.5-0.2,0.5-0.5
			V6.6h1.1c0.3,0,0.5-0.2,0.5-0.5c0-0.2-0.1-0.4-0.3-0.4l-8.6-4.3c-0.1-0.1-0.3-0.1-0.4,0l-8.7,4.2c-0.2,0.1-0.3,0.4-0.2,0.7
			c0.1,0.2,0.3,0.3,0.4,0.3h1.1v2.6c0,0.3,0.2,0.5,0.5,0.5v13.7h-0.5c-0.2,0-0.4,0.1-0.5,0.4l-0.2,0.7h-6v-6.9h0.3
			c0.3,0,0.5-0.2,0.5-0.5v-1.3c0-0.3-0.2-0.5-0.5-0.5c0,0,0,0,0,0H63v-1.5h0.4c0.3,0,0.5-0.2,0.5-0.5v-1.9c0-0.3-0.2-0.5-0.5-0.5
			h-0.5V9.4c0.3-0.5,0.4-1,0.4-1.5c0,0,0-0.1,0-0.1l-1.6-7.4C61.6,0.1,61.3,0,61.1,0c-0.2,0-0.3,0.2-0.4,0.4C60.5,1.1,59.3,7,59.3,8
			c0,0.5,0.1,1,0.3,1.4v1.6h-0.5c-0.3,0-0.5,0.2-0.5,0.5c0,0,0,0,0,0v1.9c0,0.3,0.2,0.5,0.5,0.5h0.4v1.5h-1.5
			c-0.3,0-0.5,0.2-0.5,0.5v1.3c0,0.3,0.2,0.5,0.5,0.5h0.3v6.9h-8.9v-7.8h0.3c0.3,0,0.5-0.2,0.5-0.5v-3.6c0-0.3-0.2-0.5-0.5-0.5
			c0,0,0,0,0,0h-1.9c-0.3,0-0.5,0.2-0.5,0.5v1h-1v-1c0-0.3-0.2-0.5-0.5-0.5c0,0,0,0,0,0h-2.7c-0.3,0-0.5,0.2-0.5,0.5v1h-1v-1
			c0-0.3-0.2-0.5-0.5-0.5c0,0,0,0,0,0h-1.9c-0.3,0-0.5,0.2-0.5,0.5c0,0,0,0,0,0v3.6c0,0.3,0.2,0.5,0.5,0.5h0.5v12.9h-7v-4.7
			c0-0.3-0.2-0.5-0.5-0.5h-0.8v-3.6c-0.1-1.5-1-2.8-2.4-3.4v-3.3c-0.1-0.8-0.6-1.4-1.4-1.6V8.1h-1v4.4c-0.8,0.1-1.4,0.8-1.4,1.6v3.3
			c-1.4,0.5-2.4,1.9-2.5,3.4v3.6H22c-0.3,0-0.5,0.2-0.5,0.5v0v13.6H0v1h30.3c7.6,0.1,33.8,0.8,40.8,7.7v0h14.7v-0.1l0.1,0
			c7-6.9,33.4-7.6,40.9-7.7h30.4v-1L140.4,38.5z M106.8,19.9l0.4,0.8h-0.9L106.8,19.9z M91.8,19.9l0.4,0.8h-0.9L91.8,19.9z M92.7,26
			c0.1,0,0.2,0,0.3-0.1l2.3-1.7c0.1-0.1,0.2-0.2,0.2-0.4V13.7c0.2-0.1,0.3-0.3,0.3-0.5c0-1.3,0.4-2.5,1.2-3.5c1.3-1.2,3.4-1.2,4.7,0
			c0.8,1,1.2,2.2,1.2,3.5c0,0.2,0.2,0.5,0.4,0.5v10.1c0,0.2,0.1,0.3,0.2,0.4l2.2,1.7c0.1,0.1,0.2,0.1,0.3,0.1h4.1V26h1.4
			c0.2,0,0.4-0.1,0.4-0.3l1-2.2l1,2.2c0.1,0.2,0.3,0.3,0.4,0.3h5.6v2.6c0,0.3,0.2,0.5,0.5,0.5h0.2c0,2.7,0,6.3,0,7.7l-33.2-8.2v-1.4
			c0,0,0-0.1,0-0.1L87.1,26H92.7z M44.7,35.8l1,1L44,38.5H33.7L44.7,35.8z M70.8,29.4L66.6,36l-2.8-4.9L70.8,29.4z M93.3,31.1
			L90.5,36l-4.2-6.6L93.3,31.1z M108.1,34.8l1.9,2l-1.7,1.7h-0.7l-1.6-1.8l1.7-2L108.1,34.8z M109.9,35.2l1.3,0.3l-0.5,0.5
			L109.9,35.2z M110.7,37.5l1,1h-2L110.7,37.5z M100.7,38.5l-1.4-1.8l2.3-3.4l3.1,3.5l-1.5,1.8L100.7,38.5z M102.4,39.5l-0.5,0.6
			l-0.4-0.6H102.4z M80.4,39.5h4.4v5.8L80.4,39.5z M53.8,38.5l-1.5-1.8l3.1-3.5l2.3,3.4l-1.4,1.8L53.8,38.5z M55.6,39.5L55.2,40
			l-0.5-0.6H55.6z M52.6,38.5h-1.8l0.9-1L52.6,38.5z M58.3,37.5l0.7,1h-1.4L58.3,37.5z M58.9,36.7l3.9-5.2L66,37l-1,1.5h-4.9
			L58.9,36.7z M66.5,37.9l0.3,0.5h-0.7L66.5,37.9z M67.1,37l4-6.3v7.8h-3.2L67.1,37z M71.1,39.5V44l-2.6-4.6L71.1,39.5z M72.1,45.2
			v-5.8h4.4L72.1,45.2z M72.1,38.5v-8.3l5.8,7.5l-0.6,0.8L72.1,38.5z M79.1,37.7l5.8-7.5v8.3h-5.2L79.1,37.7z M85.8,39.5h2.8
			l-2.8,4.8L85.8,39.5z M85.8,38.5v-8L90,37l-0.8,1.5H85.8z M90.5,37.9l0.3,0.5h-0.7L90.5,37.9z M91.1,37l3.2-5.5l3.9,5.2l-1.2,1.8
			H92L91.1,37z M98.8,37.5l0.7,1h-1.4L98.8,37.5z M105.4,37.4l0.9,1h-1.8L105.4,37.4z M105.4,36l-2.1-2.4l3.4,0.8L105.4,36z
			 M98.7,35.8l-3-4.1l5,1.2L98.7,35.8z M78.5,36.9l-5.9-7.7h11.7L78.5,36.9z M58.3,35.8l-2-2.9l5-1.2L58.3,35.8z M51.7,36l-1.3-1.6
			l3.5-0.8L51.7,36z M49.3,34.7l1.7,2l-1.6,1.8h-0.7L47,36.8l1.9-2L49.3,34.7z M47.3,38.5h-2l1-1L47.3,38.5z M46.3,36.1l-0.5-0.5
			l1.4-0.3L46.3,36.1z M49.7,39.5h3.7l0.6,0.7c-1.3-0.2-2.7-0.4-4.2-0.6L49.7,39.5z M56.8,39.5h2.8l1.4,2.1c-1.5-0.4-3.2-0.7-5-1
			L56.8,39.5z M60.8,39.5h3.6L62.8,42l-0.3-0.1L60.8,39.5z M65.5,39.5h1.8l3.5,6.2c-2.2-1.5-4.6-2.7-7.2-3.4L65.5,39.5z M77.7,39.5
			h1.4l5.2,6.7H72.6L77.7,39.5z M89.7,39.5h1.8l1.8,2.8c-2.5,0.7-4.9,1.8-7.1,3.3L89.7,39.5z M92.7,39.5h3.6l-1.6,2.4L94.3,42
			L92.7,39.5z M97.4,39.5h2.8l0.8,1c-1.8,0.3-3.4,0.6-4.9,1L97.4,39.5z M103.7,39.5h3.7l-0.1,0.1c-1.5,0.2-2.9,0.3-4.2,0.5
			L103.7,39.5z M113,38.5l-1.7-1.7l0.9-1l10.9,2.7H113z M71.2,24.4h0.6c0.3,0,0.5-0.2,0.5-0.5V9.2c0-0.3-0.2-0.5-0.5-0.5
			c0,0,0,0,0,0V6.1c0-0.2-0.1-0.3-0.2-0.4l6.8-3.3l6.7,3.4C85.1,5.8,85,6,85,6.2v2.6c-0.3,0-0.5,0.2-0.5,0.5c0,0,0,0,0,0v14.7
			c0,0.3,0.2,0.5,0.5,0.5h0.7l0.7,2.9v1.1l-0.6-0.2l0,0.1v-0.1H71.1v0.1l0-0.1l-0.6,0.2v-1.1L71.2,24.4z M60.4,8.8
			c-0.1-0.2-0.2-0.5-0.2-0.8c0-0.5,0.5-2.9,0.9-5.2L62.3,8c0,0.3,0,0.6-0.2,0.9c-0.1,0.1-0.2,0.2-0.2,0.4v1.7h-1.3V9.2
			C60.6,9,60.6,8.9,60.4,8.8 M39.8,13.1h0.9v1c0,0.3,0.2,0.5,0.5,0.5h2c0.3,0,0.5-0.2,0.5-0.5v-1h1.7v1c0,0.3,0.2,0.5,0.5,0.5h2
			c0.3,0,0.5-0.2,0.5-0.5v-1h0.9v2.6h-0.3c-0.3,0-0.5,0.2-0.5,0.5v8.7c0,0.3,0.2,0.5,0.5,0.5h9.9c0.3,0,0.5-0.2,0.5-0.5v-7.8
			c0-0.3-0.2-0.5-0.5-0.5h-0.3v-0.3h1.5c0.3,0,0.5-0.2,0.5-0.5v-2.5c0-0.3-0.2-0.5-0.5-0.5h-0.4v-0.9h3.4v0.9h-0.4
			c-0.3,0-0.5,0.2-0.5,0.5v2.5c0,0.3,0.2,0.5,0.5,0.5H64v0.3h-0.3c-0.3,0-0.5,0.2-0.5,0.5v7.9c0,0.3,0.2,0.5,0.5,0.5H70l-0.5,1.7
			c0,0,0,0.1,0,0.1v1.4l-28.7,7V16.2c0-0.3-0.2-0.5-0.5-0.5h-0.5V13.1z M26.3,14.2c0-0.2,0.1-0.7,0.9-0.7c0.8,0,0.9,0.5,0.9,0.7v3.1
			c-0.3-0.1-0.6-0.1-1-0.1c-0.3,0-0.6,0-0.8,0.1V14.2z M22.5,38.5V25.4h0.3v1.3h1v-5.9c0-0.1,0-2.7,3.3-2.7s3.4,2.7,3.4,2.8v5.8h1
			v-1.3h0.3v4.7c0,0.3,0.2,0.5,0.5,0.5h7.5V36l-10.2,2.5c-0.9,0-1.4,0-1.4,0L22.5,38.5z M127.3,38.5l-5.7-1.4c0-0.8,0-2.8,0-8.5
			c0-0.3-0.2-0.5-0.5-0.5h-0.2v-4.2h0.1c0.3,0,0.5-0.2,0.5-0.5c0-0.1,0-0.1,0-0.2l-0.6-1.6c-0.1-0.2-0.4-0.4-0.6-0.3
			c-0.1,0-0.2,0.1-0.3,0.3l-0.6,1.6c-0.1,0.3,0,0.5,0.3,0.6c0.1,0,0.1,0,0.2,0h0.1V25h-5.2l-1-2.2v-0.3c0.9-0.3,1.7-1.1,2-2
			c0.7-1.4,2.1-2.4,3.6-2.7c1.7-0.3,1.8-2.4,1.8-2.7c0-0.1,0.2-1,0.8-1s0.8,0.8,0.8,1c0,0.3,0.2,2.4,1.9,2.7c1.6,0.2,3,1.2,3.6,2.7
			c0.3,0.9,1.1,1.6,2,2v2.9c0,0.1,0,0.2,0.1,0.3c0.1,0.2,0.4,0.4,1,0.4c1.2,0,1.8,1.6,1.8,1.6c0,0,0,0,0,0.1c0.5,1,1.1,2,1.8,2.9
			c0.7,0.6,1.6,0.9,2.5,1c0.2,0.4,0.4,0.7,0.7,1c0.4,0.4,0.9,0.6,1.4,0.6v5.3h-10.7C128.7,38.5,128.2,38.5,127.3,38.5"/>
		<rect id="Rectangle_819" x="75.1" y="9.9" class="st2" width="1" height="14.5"/>
		<rect id="Rectangle_820" x="78" y="9.9" class="st2" width="1" height="14.5"/>
		<rect id="Rectangle_821" x="80.9" y="9.9" class="st2" width="1" height="14.5"/>
	</g>
	<path id="Path_1415" style="clip-path:url(#SVGID_00000027565964421887474590000009880598312525811344_);fill:#FFFFFF;" d="M0,56.5
		v15.7h11.3v-1.1H1.2v-6.3h9v-1.1h-9v-6.2h10v-1.1H0z"/>
</g>
</svg>
