<!-- Generated by IcoMoon.io -->
<svg version="1.1" xmlns="http://www.w3.org/2000/svg" width="27" height="32" viewBox="0 0 27 32">
<title>apple</title>
<path fill="#fff" d="M18.426 5.215v-0.071c1.078-1.214 1.737-2.821 1.737-4.582 0-0.197-0.008-0.392-0.024-0.585l0.002 0.025c-0.98 0.074-1.88 0.356-2.675 0.802l0.032-0.017c-0.865 0.444-1.599 1.018-2.207 1.706l-0.007 0.008c-1.125 1.158-1.819 2.74-1.819 4.485 0 0.231 0.012 0.46 0.036 0.685l-0.002-0.028q2.642 0.213 4.928-2.428zM8.715 31.997c0.84-0.068 1.617-0.271 2.331-0.589l-0.045 0.018c0.902-0.397 1.949-0.654 3.048-0.713l0.022-0.001c1.066 0.045 2.066 0.277 2.985 0.664l-0.057-0.021c0.752 0.354 1.628 0.585 2.551 0.642l0.020 0.001q2.285-0.071 4.642-3.285c1.095-1.495 1.993-3.224 2.605-5.082l0.037-0.131c-1.771-0.777-3.142-2.194-3.84-3.951l-0.017-0.049c-0.32-0.677-0.506-1.47-0.506-2.307 0-0.093 0.002-0.185 0.007-0.277l-0 0.013c-0.003-0.070-0.004-0.152-0.004-0.235 0-2.532 1.437-4.728 3.539-5.819l0.036-0.017c-1.389-1.895-3.577-3.133-6.059-3.213l-0.012-0c-0.1-0.005-0.216-0.007-0.334-0.007-0.746 0-1.467 0.107-2.148 0.306l0.054-0.014q-0.785 0.214-2.143 0.714c-0.518 0.23-1.12 0.405-1.749 0.495l-0.037 0.004c-0.722-0.115-1.37-0.314-1.976-0.591l0.048 0.019c-1.025-0.441-2.213-0.746-3.457-0.854l-0.043-0.003c-1.467 0.056-2.826 0.473-4.004 1.165l0.040-0.022c-1.291 0.752-2.325 1.82-3.015 3.1l-0.021 0.042c-0.768 1.449-1.219 3.168-1.219 4.992 0 0.103 0.001 0.205 0.004 0.308l-0-0.015c0.021 2.078 0.385 4.064 1.039 5.913l-0.039-0.128c0.519 1.367 1.072 2.52 1.707 3.62l-0.064-0.12c0.784 1.414 1.684 2.633 2.721 3.722l-0.007-0.007c0.81 0.986 2.002 1.633 3.346 1.712l0.013 0.001z"></path>
</svg>
