<?xml version="1.0" encoding="utf-8"?>
<!-- Generator: Adobe Illustrator 25.1.0, SVG Export Plug-In . SVG Version: 6.00 Build 0)  -->
<svg version="1.1" id="Capa_1" xmlns="http://www.w3.org/2000/svg" xmlns:xlink="http://www.w3.org/1999/xlink" x="0px" y="0px"
	 viewBox="0 0 25 25" style="enable-background:new 0 0 25 25;" xml:space="preserve">
<style type="text/css">
	.st0{fill:#11A63C;}
</style>
<g>
	<g>
		<path class="st0" d="M12.5,0C5.6,0,0,5.6,0,12.5S5.6,25,12.5,25S25,19.4,25,12.5S19.4,0,12.5,0z M19.5,9.2l-8,7.9
			c-0.5,0.5-1.2,0.5-1.7,0l-4.2-3.9C5,12.8,5,12.1,5.5,11.6c0.5-0.5,1.3-0.5,1.8-0.1l3.4,3.1l7.1-7.1c0.5-0.5,1.3-0.5,1.8,0
			S20,8.7,19.5,9.2z"/>
	</g>
</g>
</svg>
