<!-- Generated by IcoMoon.io -->
<svg version="1.1" xmlns="http://www.w3.org/2000/svg" width="32" height="32" viewBox="0 0 32 32">
<title>facebook</title>
<path fill="#fff" d="M30.268 0h-28.533c-0.952 0.014-1.72 0.782-1.734 1.733l-0 0.001v28.533c0.014 0.952 0.782 1.72 1.733 1.734l0.001 0h15.332v-12.401h-4.132v-4.8h4.132v-3.601c-0.018-0.17-0.028-0.368-0.028-0.567 0-3.231 2.619-5.85 5.85-5.85 0.157 0 0.312 0.006 0.466 0.018l-0.020-0.001c1.734 0 3.334 0.134 3.733 0.134v4.399h-2.534c-1.999 0-2.4 0.934-2.4 2.4v3.068h4.8l-0.666 4.8h-4.134v12.399h8.134c0.951-0.014 1.719-0.781 1.734-1.731l0-0.001v-28.533c-0.014-0.952-0.782-1.72-1.733-1.734l-0.001-0z"></path>
</svg>
