<?xml version="1.0" encoding="utf-8"?>
<!-- Generator: Adobe Illustrator 25.1.0, SVG Export Plug-In . SVG Version: 6.00 Build 0)  -->
<svg version="1.1" id="Layer_1" xmlns="http://www.w3.org/2000/svg" xmlns:xlink="http://www.w3.org/1999/xlink" x="0px" y="0px"
	 viewBox="0 0 25 25" style="enable-background:new 0 0 25 25;" xml:space="preserve">
<style type="text/css">
	.st0{fill:#11A63C;}
</style>
<path class="st0" d="M12.5,25C5.6,25,0,19.4,0,12.5S5.6,0,12.5,0S25,5.6,25,12.5S19.4,25,12.5,25z M12.5,1.6
	c-6,0-10.9,4.9-10.9,10.9s4.9,10.9,10.9,10.9s10.9-4.9,10.9-10.9S18.5,1.6,12.5,1.6z"/>
<path class="st0" d="M18,13.3H7c-0.4,0-0.8-0.3-0.8-0.8s0.3-0.8,0.8-0.8H18c0.4,0,0.8,0.3,0.8,0.8S18.4,13.3,18,13.3z"/>
<path class="st0" d="M12.5,18.8c-0.4,0-0.8-0.3-0.8-0.8V7c0-0.4,0.3-0.8,0.8-0.8s0.8,0.3,0.8,0.8V18C13.3,18.4,12.9,18.8,12.5,18.8z
	"/>
</svg>
