<svg xmlns="http://www.w3.org/2000/svg" width="17.5" height="17.5" viewBox="0 0 17.5 17.5">
  <path id="avatar" d="M9,.25a8.75,8.75,0,1,0,6.187,2.563A8.75,8.75,0,0,0,9,.25ZM5.25,15.488v-1.25a2.006,2.006,0,0,1,1.875-2.113h3.75a2.006,2.006,0,0,1,1.875,2.119v1.25a7.437,7.437,0,0,1-7.5,0ZM14,14.575v-.381a3.25,3.25,0,0,0-3.125-3.319H7.125A3.25,3.25,0,0,0,4,14.194v.387a7.5,7.5,0,1,1,10,0ZM9,3.375a3.125,3.125,0,1,0,2.21.915A3.125,3.125,0,0,0,9,3.375Zm0,5a1.875,1.875,0,1,1,1.326-.549A1.875,1.875,0,0,1,9,8.375Z" transform="translate(-0.25 -0.25)" fill="#10a047"/>
</svg>
