<svg width="40" height="33" viewBox="0 0 40 33" fill="none" xmlns="http://www.w3.org/2000/svg">
<path d="M39.037 3.772C37.695 4.449 36.128 4.899 34.47 5.028L34.427 5.031C36.113 4.052 37.364 2.483 37.908 0.613L37.921 0.56C36.474 1.448 34.788 2.126 32.99 2.497L32.888 2.515C31.425 0.965 29.356 0 27.062 0C22.655 0 19.079 3.562 19.056 7.964V7.966C19.056 8.666 19.197 9.225 19.197 9.784C12.512 9.501 6.626 6.306 2.741 1.442L2.707 1.398C2.009 2.603 1.595 4.047 1.589 5.588V5.59C1.589 5.613 1.589 5.639 1.589 5.666C1.589 8.439 3.024 10.877 5.192 12.278L5.223 12.297C3.886 12.25 2.642 11.894 1.546 11.298L1.59 11.32V11.459C1.59 11.462 1.59 11.466 1.59 11.47C1.59 15.325 4.329 18.54 7.967 19.276L8.018 19.285C7.399 19.437 6.68 19.538 5.942 19.564L5.923 19.565C5.846 19.569 5.756 19.571 5.665 19.571C5.212 19.571 4.771 19.518 4.348 19.419L4.387 19.427C5.472 22.642 8.424 24.932 11.923 25.016H11.933C9.225 27.152 5.776 28.459 2.025 28.51H2.013C1.915 28.514 1.799 28.516 1.683 28.516C1.108 28.516 0.546 28.463 0 28.363L0.057 28.372C3.536 30.627 7.785 31.977 12.346 32.005H12.353C12.398 32.005 12.451 32.006 12.503 32.006C24.998 32.006 35.126 21.877 35.126 9.383C35.126 9.328 35.126 9.273 35.125 9.218V9.226V8.249C36.599 6.937 37.888 5.469 38.985 3.86L39.038 3.778L39.037 3.772Z" fill="#414855"/>
</svg>
