<svg width="39" height="32" viewBox="0 0 39 32" fill="none" xmlns="http://www.w3.org/2000/svg">
<path d="M38.984 3.77401C37.642 4.45101 36.075 4.90101 34.417 5.03001L34.374 5.03301C36.06 4.05401 37.311 2.48501 37.855 0.615014L37.868 0.562014C36.421 1.45001 34.735 2.12801 32.937 2.49901L32.835 2.51701C31.372 0.967014 29.303 0.00201416 27.009 0.00201416C22.602 0.00201416 19.026 3.56401 19.003 7.96601V7.96801C19.003 8.66801 19.144 9.22701 19.144 9.78601C12.459 9.50301 6.57302 6.30801 2.68802 1.44401L2.65402 1.40001C1.95602 2.60501 1.54202 4.04901 1.53602 5.59001V5.59201C1.53602 5.61501 1.53602 5.64101 1.53602 5.66801C1.53602 8.44101 2.97102 10.879 5.13902 12.28L5.17002 12.299C3.83302 12.252 2.58902 11.896 1.49302 11.3L1.53702 11.322V11.461C1.53702 11.464 1.53702 11.468 1.53702 11.472C1.53702 15.327 4.27602 18.542 7.91402 19.278L7.96502 19.287C7.34602 19.439 6.62702 19.54 5.88902 19.566L5.87002 19.567C5.79302 19.571 5.70302 19.573 5.61202 19.573C5.15902 19.573 4.71802 19.52 4.29502 19.421L4.33402 19.429C5.41902 22.644 8.37102 24.934 11.87 25.018H11.88C9.17202 27.154 5.72302 28.461 1.97202 28.512H1.96002C1.86202 28.516 1.74602 28.518 1.63002 28.518C1.05502 28.518 0.493021 28.465 -0.0529785 28.365L0.00402148 28.374C3.48302 30.629 7.73202 31.979 12.293 32.007H12.3C12.345 32.007 12.398 32.008 12.45 32.008C24.945 32.008 35.073 21.879 35.073 9.38501C35.073 9.33001 35.073 9.27501 35.072 9.22001V9.22801V8.25101C36.546 6.93901 37.835 5.47101 38.932 3.86201L38.985 3.78001L38.984 3.77401Z" fill="white"/>
</svg>
