<!-- Generated by IcoMoon.io -->
<svg version="1.1" xmlns="http://www.w3.org/2000/svg" width="46" height="32" viewBox="0 0 46 32">
<title>wifi</title>
<path fill="#fff" d="M43.058 11.248c0.14 0.165 0.348 0.269 0.579 0.269 0.263 0 0.495-0.134 0.631-0.337l0.002-0.003 1.212-1.212c0.165-0.14 0.269-0.348 0.269-0.579 0-0.263-0.134-0.495-0.337-0.631l-0.003-0.002c-5.92-5.421-13.84-8.742-22.536-8.742s-16.616 3.321-22.561 8.765l0.025-0.023c-0.206 0.138-0.34 0.37-0.34 0.633 0 0.232 0.104 0.439 0.268 0.579l0.001 0.001 1.34 1.34c0.133 0.131 0.315 0.212 0.517 0.212 0.228 0 0.432-0.104 0.567-0.266l0.001-0.001c3.506-3.273 7.849-5.695 12.672-6.91l0.2-0.043c2.194-0.578 4.713-0.909 7.31-0.909s5.116 0.332 7.517 0.955l-0.207-0.046c5.023 1.257 9.367 3.679 12.89 6.968l-0.017-0.016zM9.468 19.591c0.132 0.174 0.338 0.285 0.571 0.285s0.439-0.111 0.569-0.283l0.001-0.002c3.139-2.916 7.36-4.706 11.999-4.706 0.082 0 0.163 0.001 0.245 0.002l-0.012-0c0.060-0.001 0.132-0.001 0.203-0.001 4.671 0 8.924 1.788 12.112 4.718l-0.013-0.012c0.132 0.174 0.338 0.285 0.571 0.285s0.439-0.111 0.569-0.283l0.001-0.002 1.212-1.283c0.165-0.14 0.269-0.348 0.269-0.579 0-0.263-0.134-0.495-0.337-0.631l-0.003-0.002c-3.824-3.494-8.936-5.634-14.548-5.634s-10.724 2.14-14.565 5.649l0.017-0.015c-0.206 0.138-0.34 0.37-0.34 0.633 0 0.232 0.104 0.439 0.267 0.579l0.001 0.001zM22.876 32c3.117-0.045 5.627-2.582 5.627-5.705s-2.51-5.661-5.623-5.705l-0.004-0c-0.016-0-0.035-0-0.055-0-1.575 0-2.997 0.656-4.008 1.71l-0.002 0.002c-1.014 0.988-1.642 2.367-1.642 3.893 0 0.035 0 0.071 0.001 0.106l-0-0.005c0.009 3.147 2.558 5.696 5.705 5.706h0.001zM22.876 28.577c-1.261 0-2.282-1.022-2.282-2.282s1.022-2.282 2.282-2.282v0c1.223 0.088 2.193 1.060 2.277 2.276l0 0.008c-0.018 1.253-1.029 2.265-2.281 2.282l-0.002 0z"></path>
</svg>
