<!-- Generated by IcoMoon.io -->
<svg version="1.1" xmlns="http://www.w3.org/2000/svg" width="32" height="32" viewBox="0 0 32 32">
<title>linked-in</title>
<path fill="#fff" d="M7.17 31.867h-6.639v-21.377h6.639zM3.851 7.701c-2.127-0-3.852-1.724-3.852-3.852s1.724-3.852 3.852-3.852c2.127 0 3.852 1.724 3.852 3.852 0 1.064-0.431 2.027-1.128 2.724v0c-0.697 0.697-1.659 1.128-2.723 1.128-0 0-0.001 0-0.001 0h0zM31.867 31.867h-6.639v-10.357c0-2.522 0-5.577-3.452-5.577s-3.983 2.656-3.983 5.445v10.622h-6.639v-21.51h6.373v3.053h0.134c1.149-2.080 3.328-3.465 5.831-3.465 0.144 0 0.286 0.005 0.428 0.014l-0.019-0.001c6.639 0 7.967 4.383 7.967 10.091z"></path>
</svg>
