<svg xmlns="http://www.w3.org/2000/svg" width="16.875" height="17.5" viewBox="0 0 16.875 17.5">
  <path id="pie" d="M6.875,17.5a6.875,6.875,0,0,1,0-13.75.625.625,0,0,1,.625.625V10h5.625a.625.625,0,0,1,.625.625A6.883,6.883,0,0,1,6.875,17.5ZM6.25,5.035a5.625,5.625,0,1,0,6.215,6.215H6.875a.625.625,0,0,1-.625-.625Zm10,2.465H10a.625.625,0,0,1-.625-.625V.625A.625.625,0,0,1,10,0a6.883,6.883,0,0,1,6.875,6.875.625.625,0,0,1-.625.625ZM10.625,6.25H15.59a5.636,5.636,0,0,0-4.965-4.965Z" fill="#10a047"/>
</svg>
