<svg xmlns="http://www.w3.org/2000/svg" width="17.498" height="15.625" viewBox="0 0 17.498 15.625">
  <path id="charity" d="M12.78,1.25a3.406,3.406,0,0,1,2.444,1.025,3.569,3.569,0,0,1,0,5L8.749,13.831,2.274,7.275a3.569,3.569,0,0,1,0-5,3.425,3.425,0,0,1,4.881,0L8.749,3.9,10.33,2.281A3.406,3.406,0,0,1,12.78,1.25Zm0-1.25A4.675,4.675,0,0,0,9.443,1.4l-.694.7-.694-.7a4.681,4.681,0,0,0-6.675,0,4.831,4.831,0,0,0,0,6.763l7.369,7.462,7.369-7.462a4.831,4.831,0,0,0,0-6.763A4.675,4.675,0,0,0,12.78,0Z" fill="#10a047"/>
</svg>
