<svg xmlns="http://www.w3.org/2000/svg" width="66.706" height="80" viewBox="0 0 66.706 80">
  <path id="ESGIcon" d="M29.85,63.03C13.814,60.736,1.5,47.571,1.5,31.7,1.5,14.215,16.445.017,34.853.017S68.206,14.215,68.206,31.7c0,15.869-12.311,29.034-28.35,31.328V80.017H29.85Zm10.006-3.375C54.037,57.4,64.87,45.724,64.87,31.7c0-15.632-13.465-28.35-30.018-28.35S4.835,16.07,4.835,31.7c0,14.022,10.836,25.7,25.015,27.953V46.691L14.121,35.218l1.964-2.695L29.85,42.562V32.676l-9.7-7.138,1.978-2.685,7.718,5.68,0-8.518-3.739-2.678,1.944-2.712,5.13,3.645.007,58.411h3.335l.007-58.421,5.15-3.635,1.944,2.712-3.772,2.7,0,8.518,7.748-5.7,1.974,2.685L39.856,32.7v9.882L53.647,32.523l1.964,2.695L39.856,46.711V59.655Z" transform="translate(-1.5 -0.017)" fill="#f5834c" fill-rule="evenodd"/>
</svg>
