<svg xmlns="http://www.w3.org/2000/svg" width="20.671" height="20.671" viewBox="0 0 20.671 20.671"><defs><style>.a{fill:#414855;}</style></defs><g transform="translate(0 0)"><path class="a" d="M20.051.5H1.62A1.137,1.137,0,0,0,.5,1.62V20.051a1.137,1.137,0,0,0,1.12,1.12h9.9v-8.01H8.855v-3.1h2.67V7.735A3.779,3.779,0,0,1,15.573,3.6c1.12,0,2.153.086,2.412.086V6.529H16.348c-1.292,0-1.55.6-1.55,1.55V10.06h3.1l-.431,3.1H14.8v8.01h5.254a1.137,1.137,0,0,0,1.12-1.12V1.62A1.137,1.137,0,0,0,20.051.5Z" transform="translate(-0.5 -0.5)"/></g></svg>