<svg xmlns="http://www.w3.org/2000/svg" width="74.517" height="74.858" viewBox="0 0 74.517 74.858">
  <g id="LongevityIcon" transform="translate(-72.314 -17.5)">
    <path id="Path_1118" data-name="Path 1118" d="M93.722,92.358h17.419a6.237,6.237,0,0,0,6.1-4.991H160.91v-2.5h-3.733v-52.4a1.246,1.246,0,0,0-1.244-1.248h-9.954a1.246,1.246,0,0,0-1.244,1.248V43.7h-8.709a1.246,1.246,0,0,0-1.244,1.248V56.177h-8.709a1.246,1.246,0,0,0-1.244,1.248V68.653h-7.465V59.92a6.243,6.243,0,0,0-2.923-5.286l4.682-4.7h4.461a1.246,1.246,0,0,0,1.244-1.248V44.217l6.737-6.755h4.461a1.246,1.246,0,0,0,1.244-1.248V31.741l6.737-6.755h4.461a1.246,1.246,0,0,0,1.244-1.248V22.491h7.465V20h-7.465V18.748a1.246,1.246,0,0,0-1.244-1.248h-4.977a1.246,1.246,0,0,0-1.244,1.248v4.474l-6.736,6.755h-4.461a1.246,1.246,0,0,0-1.244,1.248V35.7l-6.737,6.755h-4.461a1.246,1.246,0,0,0-1.244,1.248v4.474l-5.531,5.546a6.349,6.349,0,0,0-.69-.039H93.722A6.236,6.236,0,0,0,87.5,59.919v26.2a6.236,6.236,0,0,0,6.221,6.238Zm53.5-58.639h7.465V84.872h-7.465ZM137.27,46.2h7.465V84.872H137.27Zm-2.488,12.476v26.2h-7.465v-26.2Zm-9.954,12.476V84.872h-7.465V71.148ZM144.735,20h2.488v2.5h-2.488ZM132.293,32.472h2.488v2.5h-2.488ZM119.851,44.948h2.488v2.5h-2.488ZM89.99,59.919a3.741,3.741,0,0,1,3.733-3.743h17.419a3.741,3.741,0,0,1,3.733,3.743v26.2a3.741,3.741,0,0,1-3.733,3.743H93.722A3.741,3.741,0,0,1,89.99,86.12Z" transform="translate(-15.187 0)" fill="#f5834c"/>
    <path id="Path_1119" data-name="Path 1119" d="M123.609,314.015h15.53a1.109,1.109,0,0,0,1.109-1.109v-5.546a1.109,1.109,0,0,0-1.109-1.109h-15.53a1.109,1.109,0,0,0-1.109,1.109v5.546A1.109,1.109,0,0,0,123.609,314.015Zm1.109-5.546H138.03V311.8H124.719Z" transform="translate(-45.749 -247.391)" fill="#f5834c"/>
    <path id="Path_1120" data-name="Path 1120" d="M145.67,385H132.359a1.109,1.109,0,0,0-1.109,1.109V399.42a1.109,1.109,0,0,0,1.109,1.109H145.67a1.109,1.109,0,0,0,1.109-1.109V386.109A1.109,1.109,0,0,0,145.67,385Zm-12.2,2.219h4.437v4.437h-4.437Zm0,6.656h4.437v4.437h-4.437Zm11.093,4.437h-4.437V387.219h4.437Z" transform="translate(-53.39 -312.609)" fill="#f5834c"/>
    <path id="Path_1121" data-name="Path 1121" d="M446.25,525h4.437v2.219H446.25Z" transform="translate(-322.554 -434.861)" fill="#f5834c"/>
    <path id="Path_1122" data-name="Path 1122" d="M376.25,525h4.437v2.219H376.25Z" transform="translate(-262.526 -434.861)" fill="#f5834c"/>
    <path id="Path_1123" data-name="Path 1123" d="M306.25,525h4.437v2.219H306.25Z" transform="translate(-202.499 -434.861)" fill="#f5834c"/>
    <path id="Path_1124" data-name="Path 1124" d="M516.25,525h4.437v2.219H516.25Z" transform="translate(-381.62 -434.861)" fill="#f5834c"/>
    <path id="Path_1125" data-name="Path 1125" d="M595,35h2.219v2.219H595Z" transform="translate(-450.387 -15.281)" fill="#f5834c"/>
  </g>
</svg>
