<svg xmlns="http://www.w3.org/2000/svg" width="102.328" height="80" viewBox="0 0 102.328 80">
  <g id="PragmaticIcon" transform="translate(-2244.367 15982.137)">
    <path id="Path_1113" data-name="Path 1113" d="M182.423,130.323a5.272,5.272,0,0,0-5.307,5.225,5.164,5.164,0,0,0,1.369,3.5l-11.392,21.069a5.355,5.355,0,0,0-4.762.905l-2.27-1.463a33.6,33.6,0,0,0-11.578-36.616,1.517,1.517,0,0,0-2.11.245,1.465,1.465,0,0,0,.248,2.078,30.583,30.583,0,0,1,11.955,24.272,30.252,30.252,0,0,1-5.728,17.808l-4.313-4.247a24.72,24.72,0,0,0-2.091-29.873,25.5,25.5,0,0,0-13.967-8.156l0-6a31.406,31.406,0,0,1,9.335,3.117,1.512,1.512,0,0,0,2.029-.618,1.467,1.467,0,0,0-.628-2,34.436,34.436,0,0,0-12.066-3.672,1.52,1.52,0,0,0-1.171.366,1.469,1.469,0,0,0-.5,1.1V126.3a1.486,1.486,0,0,0,1.265,1.461,22.5,22.5,0,0,1,13.429,7.4,21.779,21.779,0,0,1,5.19,17.513l-15.745-10.142a7.455,7.455,0,0,0,1.05-3.818,7.711,7.711,0,0,0-15.42,0,7.523,7.523,0,0,0,2.493,5.584l-14,16.179a21.673,21.673,0,0,1-2.932-10.5,1.5,1.5,0,0,0-3,.057,24.589,24.589,0,0,0,3.88,12.819l-4.021,4.646a30.425,30.425,0,0,1-5.852-17.954,31.1,31.1,0,0,1,25.624-30.388v6.023a25.175,25.175,0,0,0-18.95,18.569,1.479,1.479,0,0,0,1.115,1.781,1.5,1.5,0,0,0,1.808-1.1,22.217,22.217,0,0,1,17.8-16.591,1.485,1.485,0,0,0,1.236-1.456v-8.957a1.468,1.468,0,0,0-.511-1.111,1.518,1.518,0,0,0-1.184-.356A34.106,34.106,0,0,0,92.8,149.536,33.356,33.356,0,0,0,99.657,169.8l-2.379,2.749a7.751,7.751,0,0,0-4.164-1.208,7.594,7.594,0,1,0,7.71,7.592,7.469,7.469,0,0,0-1.38-4.326l2.15-2.484a34.74,34.74,0,0,0,46.619,4.212,1.464,1.464,0,0,0,.143-2.216l-6.428-6.332a1.52,1.52,0,0,0-1.923-.166,22.552,22.552,0,0,1-30.533-4.6l14.866-17.176a7.8,7.8,0,0,0,7.264-1.086l17.08,11a21.806,21.806,0,0,1-3.3,6.647,1.461,1.461,0,0,0,.156,1.909l6.419,6.321a1.515,1.515,0,0,0,1.062.434c.029,0,.059,0,.088,0a1.512,1.512,0,0,0,1.091-.559,33.773,33.773,0,0,0,4.824-8.091l1.571,1.012a5.108,5.108,0,0,0-.29,1.7,5.307,5.307,0,0,0,10.612,0,5.158,5.158,0,0,0-1.284-3.4l11.427-21.13a5.386,5.386,0,0,0,1.372.179,5.227,5.227,0,1,0,0-10.452Zm-89.31,53.245a4.635,4.635,0,1,1,4.706-4.634A4.675,4.675,0,0,1,93.113,183.568Zm34.078-9.021a25.512,25.512,0,0,0,13.479-3.812l4.323,4.257a31.714,31.714,0,0,1-41.435-5.141l3.926-4.536a25.911,25.911,0,0,0,1.911,2.066,25.455,25.455,0,0,0,17.8,7.167Zm-.236-31.209a4.635,4.635,0,1,1,4.706-4.634A4.676,4.676,0,0,1,126.955,143.338ZM165.6,167.4a2.287,2.287,0,0,1-2.3-2.268,2.232,2.232,0,0,1,.254-1.031,1.488,1.488,0,0,0,.3-.328,1.554,1.554,0,0,0,.137-.259,2.284,2.284,0,1,1,1.61,3.886Zm16.82-29.581a2.268,2.268,0,1,1,2.3-2.268A2.288,2.288,0,0,1,182.424,137.815Z" transform="translate(2158.962 -16088.666)" fill="#f5834c"/>
    <path id="Path_1114" data-name="Path 1114" d="M498.231,80.506h8.04v.685a3.285,3.285,0,0,0,3.281,3.281h4.769a3.285,3.285,0,0,0,3.282-3.281V76.422a3.285,3.285,0,0,0-3.282-3.282h-4.769a3.285,3.285,0,0,0-3.281,3.282v.685h-8.04a1.7,1.7,0,1,0,0,3.4Zm11.439-3.966H514.2v4.532h-4.532Z" transform="translate(1824.324 -16055.276)" fill="#f5834c"/>
    <path id="Path_1115" data-name="Path 1115" d="M458.914,94.662h2.735a1.7,1.7,0,1,0,0-3.4h-2.735a1.7,1.7,0,0,0,0,3.4Z" transform="translate(1858.516 -16069.432)" fill="#f5834c"/>
    <path id="Path_1116" data-name="Path 1116" d="M512.671,138.35a3.283,3.283,0,0,0-3.248,2.839h-5.306a1.7,1.7,0,0,0,0,3.4h5.306a3.283,3.283,0,0,0,3.248,2.839h2.516a3.285,3.285,0,0,0,3.281-3.282v-2.515a3.285,3.285,0,0,0-3.281-3.282Zm2.4,5.679h-2.279V141.75h2.279Z" transform="translate(1819.724 -16108.063)" fill="#f5834c"/>
    <path id="Path_1117" data-name="Path 1117" d="M474.27,153.021a1.7,1.7,0,0,0,1.7,1.7h1.958a1.7,1.7,0,0,0,0-3.4H475.97A1.7,1.7,0,0,0,474.27,153.021Z" transform="translate(1844.808 -16118.417)" fill="#f5834c"/>
  </g>
</svg>
