<!-- Generated by IcoMoon.io -->
<svg version="1.1" xmlns="http://www.w3.org/2000/svg" width="32" height="32" viewBox="0 0 32 32">
<title>spotify</title>
<path fill="#fff" d="M16 32c0.030 0 0.066 0 0.102 0 2.914 0 5.64-0.804 7.969-2.201l-0.070 0.039c2.433-1.433 4.407-3.407 5.799-5.764l0.041-0.075c1.359-2.292 2.161-5.052 2.161-8s-0.803-5.708-2.202-8.074l0.040 0.074c-1.433-2.433-3.407-4.407-5.764-5.799l-0.075-0.041c-2.292-1.359-5.052-2.161-8-2.161s-5.708 0.803-8.074 2.202l0.074-0.040c-2.433 1.433-4.407 3.407-5.799 5.764l-0.041 0.075c-1.358 2.292-2.161 5.052-2.161 8s0.803 5.708 2.202 8.074l-0.040-0.074c1.433 2.433 3.407 4.407 5.764 5.799l0.075 0.041c2.259 1.358 4.985 2.162 7.899 2.162 0.035 0 0.071-0 0.106-0l-0.005 0zM26.258 14.387c-0 0-0.001 0-0.001 0-0.313 0-0.603-0.097-0.842-0.262l0.005 0.003c-2.558-1.401-5.571-2.308-8.776-2.513l-0.063-0.003c-0.917-0.115-1.979-0.181-3.056-0.181-2.214 0-4.362 0.278-6.413 0.801l0.179-0.039-0.129 0.064c-0.21 0.070-0.452 0.116-0.703 0.128l-0.007 0c-0.012 0-0.026 0.001-0.040 0.001-0.405 0-0.769-0.174-1.023-0.451l-0.001-0.001c-0.261-0.288-0.421-0.672-0.421-1.093 0-0.366 0.121-0.704 0.325-0.976l-0.003 0.004c0.196-0.242 0.46-0.423 0.763-0.513l0.011-0.003c2.169-0.657 4.663-1.035 7.244-1.035 0.129 0 0.259 0.001 0.388 0.003l-0.020-0c0.018-0 0.039-0 0.060-0 2.47 0 4.874 0.282 7.182 0.816l-0.214-0.042c2.341 0.531 4.409 1.331 6.316 2.385l-0.122-0.062c0.504 0.287 0.839 0.821 0.839 1.434 0 0.018-0 0.036-0.001 0.054l0-0.003c0 0.012 0.001 0.027 0.001 0.041 0 0.405-0.174 0.77-0.451 1.023l-0.001 0.001c-0.265 0.258-0.626 0.417-1.025 0.418h-0zM24.258 19.29c-0.262-0.011-0.505-0.083-0.718-0.202l0.008 0.004-0.129-0.064c-2.065-1.193-4.484-2.036-7.062-2.377l-0.099-0.011c-0.862-0.132-1.856-0.207-2.868-0.207-1.895 0-3.729 0.264-5.467 0.757l0.141-0.034-0.258 0.064c-0.153 0.035-0.33 0.059-0.511 0.064l-0.004 0c-0.004 0-0.008 0-0.013 0-0.346 0-0.659-0.135-0.892-0.356l0.001 0.001c-0.238-0.209-0.387-0.514-0.387-0.854 0-0.006 0-0.012 0-0.018v0.001c-0.001-0.021-0.002-0.045-0.002-0.070 0-0.627 0.438-1.151 1.025-1.283l0.009-0.002c1.876-0.532 4.032-0.838 6.258-0.838h0c0.018-0 0.039-0 0.060-0 2.155 0 4.247 0.271 6.243 0.78l-0.174-0.038c2.028 0.499 3.813 1.242 5.446 2.212l-0.091-0.050c0.428 0.255 0.71 0.716 0.71 1.243 0 0.015-0 0.031-0.001 0.046l0-0.002c0 0.004 0 0.009 0 0.014 0 0.669-0.542 1.212-1.212 1.212-0.005 0-0.010-0-0.015-0h0.001zM22.516 23.546c-0.269-0.016-0.513-0.11-0.713-0.261l0.003 0.002q-5.355-3.226-13.355-1.548l-0.129 0.064c-0.187 0.032-0.409 0.055-0.636 0.064l-0.010 0c-0.014 0.001-0.030 0.001-0.046 0.001-0.262 0-0.498-0.112-0.663-0.291l-0.001-0.001c-0.16-0.175-0.258-0.41-0.258-0.667 0-0.004 0-0.007 0-0.011v0.001c-0.003-0.031-0.005-0.067-0.005-0.104 0-0.498 0.362-0.912 0.838-0.992l0.006-0.001q9.097-2 15.29 1.678c0.192 0.109 0.353 0.249 0.481 0.416l0.003 0.004c0.103 0.164 0.163 0.363 0.163 0.577 0 0.024-0.001 0.048-0.002 0.072l0-0.003c0 0.006 0 0.013 0 0.020 0 0.27-0.111 0.515-0.29 0.69l-0 0c-0.17 0.179-0.409 0.291-0.675 0.291-0.001 0-0.001 0-0.002 0h0z"></path>
</svg>
