<svg id="Group_2531" data-name="Group 2531" xmlns="http://www.w3.org/2000/svg" xmlns:xlink="http://www.w3.org/1999/xlink" width="157.099" height="88.527" viewBox="0 0 157.099 88.527">
  <defs>
    <clipPath id="clip-path">
      <rect id="Rectangle_822" data-name="Rectangle 822" width="157.099" height="88.527" fill="none"/>
    </clipPath>
  </defs>
  <path id="Path_1415" data-name="Path 1415" d="M.6,115.3v15.7H11.866v-1.073H1.77v-6.292h8.975v-1.073H1.77v-6.194h10V115.3Z" transform="translate(-0.308 -59.065)" fill="#fff"/>
  <g id="Group_2530" data-name="Group 2530">
    <g id="Group_2529" data-name="Group 2529" clip-path="url(#clip-path)">
      <path id="Path_1416" data-name="Path 1416" d="M36.7,115.3h5.219c4.926,0,8.34,3.365,8.34,7.8v.049c0,4.438-3.414,7.852-8.34,7.852H36.7Zm5.219,14.632c4.39,0,7.121-2.975,7.121-6.731v-.049a6.732,6.732,0,0,0-7.121-6.779H37.871v13.559Z" transform="translate(-18.8 -59.064)" fill="#fff"/>
      <rect id="Rectangle_817" data-name="Rectangle 817" width="1.171" height="15.705" transform="translate(38.189 56.236)" fill="#fff"/>
      <path id="Path_1417" data-name="Path 1417" d="M95.8,115.3h1.122l10.828,13.657V115.3h1.122v15.7h-.878L96.922,117.056v13.949H95.8V115.3" transform="translate(-49.075 -59.065)" fill="#fff"/>
      <path id="Path_1418" data-name="Path 1418" d="M137.5,115.3h6.487a5.773,5.773,0,0,1,4.1,1.414,3.417,3.417,0,0,1,1.024,2.487v.049a3.838,3.838,0,0,1-2.683,3.707c1.9.488,3.56,1.561,3.56,3.756v.049c0,2.634-2.244,4.292-5.609,4.292h-6.828Zm6.341,7.218c2.341,0,4.048-1.122,4.048-3.219v-.049c0-1.707-1.414-2.878-3.951-2.878h-5.316v6.194h5.219Zm.488,7.414c2.683,0,4.39-1.219,4.39-3.219v-.049c0-1.951-1.707-3.073-4.78-3.073h-5.316v6.292h5.706Z" transform="translate(-70.437 -59.064)" fill="#fff"/>
      <path id="Path_1419" data-name="Path 1419" d="M175.5,124.469V115.3h1.171v9.072c0,3.707,2,5.853,5.316,5.853,3.17,0,5.219-1.951,5.219-5.706v-9.169h1.171v8.974c0,4.487-2.634,6.926-6.438,6.926s-6.438-2.39-6.438-6.779" transform="translate(-89.903 -59.064)" fill="#fff"/>
      <path id="Path_1420" data-name="Path 1420" d="M216.2,115.3h6.584a6.116,6.116,0,0,1,4.438,1.561,4.171,4.171,0,0,1,1.171,2.926v.049c0,2.634-1.951,4.146-4.585,4.487l5.17,6.731h-1.463l-5.024-6.487h-5.121v6.487H216.2Zm6.487,8.145c2.634,0,4.585-1.317,4.585-3.609v-.049c0-2.1-1.658-3.414-4.487-3.414h-5.365v7.072Z" transform="translate(-110.752 -59.064)" fill="#fff"/>
      <path id="Path_1421" data-name="Path 1421" d="M253.3,122.945h0c0-4.292,3.073-8.145,7.755-8.145a8.432,8.432,0,0,1,5.755,2.048l-.78.878a7.112,7.112,0,0,0-5.072-1.9c-3.8,0-6.487,3.219-6.487,7.023v.049c0,4.048,2.536,7.072,6.731,7.072a8.12,8.12,0,0,0,5.024-1.8v-4.487h-5.268V122.6h6.389v6.048a9.389,9.389,0,0,1-6.194,2.341c-4.877,0-7.853-3.658-7.853-8.048" transform="translate(-129.757 -58.808)" fill="#fff"/>
      <path id="Path_1422" data-name="Path 1422" d="M296.1,115.3h1.171v7.267h10.047V115.3h1.171v15.7h-1.171V123.64H297.27v7.365H296.1Z" transform="translate(-151.682 -59.065)" fill="#fff"/>
      <rect id="Rectangle_818" data-name="Rectangle 818" width="1.561" height="8.877" transform="translate(8.584 79.549)" fill="#fff"/>
      <path id="Path_1423" data-name="Path 1423" d="M27,163.1h1.463l4.78,6.145V163.1h1.512v8.877H33.438l-4.877-6.292v6.292H27.049V163.1Z" transform="translate(-13.831 -83.551)" fill="#fff"/>
      <path id="Path_1424" data-name="Path 1424" d="M47.2,163.1h1.707l2.683,6.828,2.683-6.828h1.707l-3.707,8.926H50.907Z" transform="translate(-24.179 -83.551)" fill="#fff"/>
      <path id="Path_1425" data-name="Path 1425" d="M69.6,163.1h6.584v1.414H71.161v2.292H75.6v1.414H71.161v2.39h5.072v1.414H69.6Z" transform="translate(-35.654 -83.551)" fill="#fff"/>
      <path id="Path_1426" data-name="Path 1426" d="M87.1,170.455l.927-1.122a4.088,4.088,0,0,0,2.78,1.171c.975,0,1.561-.439,1.561-1.122v-.049c0-.634-.341-.975-2-1.366-1.9-.439-2.975-1.024-2.975-2.634v-.049c0-1.512,1.268-2.585,3.024-2.585a4.788,4.788,0,0,1,3.219,1.122l-.829,1.171a4.1,4.1,0,0,0-2.39-.927c-.927,0-1.463.488-1.463,1.073v.049c0,.683.39.975,2.1,1.414,1.853.439,2.878,1.122,2.878,2.585v.049c0,1.658-1.317,2.634-3.17,2.634a5.107,5.107,0,0,1-3.658-1.414" transform="translate(-44.619 -83.346)" fill="#fff"/>
      <path id="Path_1427" data-name="Path 1427" d="M107.429,164.563H104.6V163.1h7.218v1.463H108.99v7.414h-1.561Z" transform="translate(-53.583 -83.551)" fill="#fff"/>
      <path id="Path_1428" data-name="Path 1428" d="M124,163.1h1.658l2.683,4.195,2.683-4.195h1.658v8.877h-1.561v-6.389l-2.78,4.194h-.049l-2.78-4.146v6.341H124Z" transform="translate(-63.521 -83.551)" fill="#fff"/>
      <path id="Path_1429" data-name="Path 1429" d="M147.9,163.1h6.584v1.414h-5.024v2.292H153.9v1.414h-4.438v2.39h5.072v1.414H147.9Z" transform="translate(-75.764 -83.551)" fill="#fff"/>
      <path id="Path_1430" data-name="Path 1430" d="M166.6,163.1h1.463l4.78,6.145V163.1h1.512v8.877h-1.317l-4.877-6.292v6.292h-1.512Z" transform="translate(-85.344 -83.551)" fill="#fff"/>
      <path id="Path_1431" data-name="Path 1431" d="M189.929,164.563H187.1V163.1h7.218v1.463H191.49v7.414h-1.561Z" transform="translate(-95.845 -83.551)" fill="#fff"/>
      <path id="Path_1432" data-name="Path 1432" d="M217.229,164.563H214.4V163.1h7.218v1.463H218.79v7.414h-1.561Z" transform="translate(-109.83 -83.551)" fill="#fff"/>
      <path id="Path_1433" data-name="Path 1433" d="M233.9,163.1h3.951a3.749,3.749,0,0,1,2.585.878,2.573,2.573,0,0,1,.732,1.9v.049a2.648,2.648,0,0,1-2.1,2.683l2.39,3.365h-1.853l-2.195-3.073h-1.951v3.073H233.9Zm3.8,4.39c1.122,0,1.8-.585,1.8-1.463v-.049c0-.975-.683-1.463-1.853-1.463h-2.292v2.975Z" transform="translate(-119.819 -83.551)" fill="#fff"/>
      <path id="Path_1434" data-name="Path 1434" d="M253.7,168.17v-5.121h1.561v5.024c0,1.658.829,2.536,2.244,2.536,1.366,0,2.244-.829,2.244-2.487V163h1.561v5.024c0,2.634-1.512,4-3.8,4-2.341.049-3.8-1.268-3.8-3.853" transform="translate(-129.962 -83.5)" fill="#fff"/>
      <path id="Path_1435" data-name="Path 1435" d="M273.7,170.455l.927-1.122a4.088,4.088,0,0,0,2.78,1.171c.975,0,1.561-.439,1.561-1.122v-.049c0-.634-.341-.975-2-1.366-1.9-.439-2.975-1.024-2.975-2.634v-.049c0-1.512,1.268-2.585,3.024-2.585a4.787,4.787,0,0,1,3.219,1.122l-.829,1.171a4.1,4.1,0,0,0-2.39-.927c-.927,0-1.463.488-1.463,1.073v.049c0,.683.39.975,2.1,1.414,1.853.439,2.878,1.122,2.878,2.585v.049c0,1.658-1.317,2.634-3.17,2.634a5.107,5.107,0,0,1-3.658-1.414" transform="translate(-140.208 -83.346)" fill="#fff"/>
      <path id="Path_1436" data-name="Path 1436" d="M294.029,164.563H291.2V163.1h7.218v1.463H295.59v7.414h-1.561Z" transform="translate(-149.172 -83.551)" fill="#fff"/>
      <path id="Path_1437" data-name="Path 1437" d="M140.418,38.482v-5.8a.489.489,0,0,0-.532-.486,1.59,1.59,0,0,1-1.157-.332,2.629,2.629,0,0,1-.572-.92.488.488,0,0,0-.421-.357,4.577,4.577,0,0,1-2.1-.639,22.187,22.187,0,0,1-1.7-2.729c-.114-.313-.875-2.195-2.691-2.195-.057,0-.105,0-.146-.005V22.143a.491.491,0,0,0-.364-.472,2.594,2.594,0,0,1-1.657-1.472,5.474,5.474,0,0,0-4.384-3.316c-1-.173-1.058-1.76-1.058-1.775a.4.4,0,0,0,0-.054c-.087-.635-.566-1.836-1.751-1.836s-1.664,1.2-1.75,1.836a.39.39,0,0,0,0,.054c0,.016-.051,1.566-1.064,1.776a5.6,5.6,0,0,0-4.378,3.315,2.328,2.328,0,0,1-1.637,1.469.483.483,0,0,0-.337.279.483.483,0,0,0-.247.239L111.2,24.972h-3.951V21.7h.78a.488.488,0,0,0,.427-.724l-1.268-2.292a.507.507,0,0,0-.854,0L105.07,20.98a.488.488,0,0,0,.427.724h.78v3.268h-.132l-1.917-1.417v-10h.585v-.975h-1a5.825,5.825,0,0,0-1.4-3.524A3.953,3.953,0,0,0,99.79,7.871V4.1h1.121V3.121H99.79V1.366h-.975V3.121H97.693V4.1h1.122V7.881a3.931,3.931,0,0,0-2.532,1.178,5.828,5.828,0,0,0-1.4,3.525H93.839v.975h.683v9.994L92.51,25.021h-.231V21.7h.781a.488.488,0,0,0,.427-.724l-1.269-2.293a.508.508,0,0,0-.854,0L90.1,20.98a.487.487,0,0,0,.427.724h.78v3.317h-4.44l-.3-1.238a.488.488,0,0,0-.474-.371H85.5V9.706a.488.488,0,0,0,.488-.488V6.633h1.122a.488.488,0,0,0,.217-.925L78.693,1.416a.487.487,0,0,0-.432,0L69.58,5.658a.488.488,0,0,0,.214.926h1.121V9.218a.488.488,0,0,0,.488.488V23.411h-.537a.487.487,0,0,0-.472.364l-.172.66H64.186V17.558h.341a.488.488,0,0,0,.488-.488V15.754a.487.487,0,0,0-.488-.488H63.015V13.754h.391a.488.488,0,0,0,.488-.488V11.413a.488.488,0,0,0-.488-.488h-.537v-1.5a2.675,2.675,0,0,0,.39-1.523.49.49,0,0,0-.011-.1L61.638.384a.488.488,0,0,0-.954,0c-.146.679-1.425,6.662-1.425,7.614A2.282,2.282,0,0,0,59.6,9.354v1.571h-.536a.487.487,0,0,0-.488.488v1.853a.488.488,0,0,0,.488.488h.39v1.512H57.942a.488.488,0,0,0-.488.488v1.317a.488.488,0,0,0,.488.488h.342v6.877H49.358V16.68h.293a.488.488,0,0,0,.488-.488v-3.56a.487.487,0,0,0-.488-.488h-1.9a.488.488,0,0,0-.488.488v1.024h-.975V12.632a.487.487,0,0,0-.488-.488H43.115a.488.488,0,0,0-.488.488v1.024h-.975V12.632a.487.487,0,0,0-.488-.488H39.311a.487.487,0,0,0-.488.488v3.609a.488.488,0,0,0,.488.488H39.8V29.654H32.775V24.923a.488.488,0,0,0-.488-.488h-.78V20.86a3.989,3.989,0,0,0-2.438-3.407v-3.33a1.725,1.725,0,0,0-1.414-1.588V8.145h-.975v4.39a1.657,1.657,0,0,0-1.366,1.609v3.261a3.8,3.8,0,0,0-2.487,3.421v3.609H22a.488.488,0,0,0-.488.488V38.482H0v.975H30.3c7.561.056,33.786.758,40.813,7.664v.042H85.792v-.093l.05.05c7.04-6.919,33.357-7.61,40.859-7.664h30.4v-.975ZM106.764,19.931l.441.8h-.881Zm-14.973,0,.441.8H91.35ZM92.669,26a.49.49,0,0,0,.287-.094L95.3,24.2a.488.488,0,0,0,.2-.394V13.682a.488.488,0,0,0,.34-.484,5.4,5.4,0,0,1,1.151-3.467,3.539,3.539,0,0,1,4.724,0,5.392,5.392,0,0,1,1.15,3.467.489.489,0,0,0,.39.5V23.8a.488.488,0,0,0,.2.392l2.244,1.658a.49.49,0,0,0,.29.1h4.146V26H111.5a.488.488,0,0,0,.444-.287l.977-2.157,1.014,2.163a.487.487,0,0,0,.441.281h5.56V28.63a.488.488,0,0,0,.488.488h.2c.014,2.733.026,6.35.013,7.727L87.4,28.693V27.264a.474.474,0,0,0-.014-.117L87.1,26ZM44.7,35.782l.962.981-1.626,1.719H33.689Zm26.075-6.4-4.221,6.657-2.812-4.932Zm22.521,1.757-2.793,4.9L86.3,29.428Zm14.831,3.638,1.885,1.97-1.679,1.732h-.713L106.033,36.7l1.73-2.009Zm1.765.433,1.3.319-.5.517Zm.8,2.242.982,1.027h-1.978Zm-9.976,1.027-1.364-1.837,2.317-3.39,3.076,3.457-1.525,1.771Zm1.664.975-.5.585-.435-.585Zm-21.98,0h4.425v5.779Zm-26.553-.975L52.3,36.7l3.065-3.475,2.338,3.42-1.364,1.837Zm1.779.975-.435.585-.5-.585Zm-3.067-.975H50.731l.92-1.044Zm5.738-.985.673.985h-1.4Zm.616-.829L62.8,31.426l3.163,5.549L65,38.482H60.143Zm7.6,1.266.313.548h-.66ZM67.1,37l4.013-6.33v7.81h-3.17Zm4.013,2.456v4.585L68.5,39.458Zm.975,5.779V39.458h4.425Zm0-6.755V30.216l5.751,7.511-.579.756Zm6.979-.756,5.75-7.511v8.267H79.645Zm6.726,1.731h2.76L85.792,44.3Zm0-.975V30.441L89.952,37l-.844,1.48Zm4.751-.548.347.548h-.659Zm.547-.959,3.163-5.548,3.893,5.242-1.24,1.814H92.045Zm7.671.522.732.985H98.087Zm6.63-.05.921,1.035H104.5Zm-.012-1.481-2.116-2.378,3.438.843Zm-6.651-.15-3.033-4.085,4.989,1.224ZM78.451,36.924l-5.865-7.66h11.73Zm-20.13-1.108-1.976-2.892,5.042-1.237Zm-6.661.137L50.324,34.4l3.453-.847Zm-2.4-1.291,1.748,2.03-1.578,1.79h-.723l-1.695-1.73,1.9-2Zm-1.919,3.82H45.376l.966-1.021Zm-1.013-2.428-.532-.542,1.361-.334Zm3.334,3.4h3.728l.6.694q-2-.3-4.188-.554Zm7.17,0h2.8l1.41,2.063q-2.283-.566-4.971-1.032Zm3.977,0h3.576l-1.6,2.525-.306-.084Zm4.731,0h1.834l3.535,6.2a22.6,22.6,0,0,0-7.154-3.386Zm12.2,0h1.423l5.153,6.731H72.587Zm11.935,0h1.834l1.769,2.789a23.247,23.247,0,0,0-7.061,3.278Zm2.989,0h3.575l-1.645,2.407-.343.095Zm4.756,0h2.8l.755,1.016q-2.667.46-4.941,1.018Zm6.238,0h3.726l-.124.128q-2.19.25-4.185.549Zm9.358-.975-1.653-1.728.923-.953,10.928,2.681Zm-41.772-14.1h.647a.488.488,0,0,0,.488-.488V9.218a.487.487,0,0,0-.488-.488V6.1a.486.486,0,0,0-.192-.388L78.474,2.4l6.741,3.352a.487.487,0,0,0-.2.4V8.73a.487.487,0,0,0-.488.488V23.9a.488.488,0,0,0,.488.488H85.7l.723,2.937v1.13l-.615-.151-.019.076v-.09H71.111v.09l-.019-.076-.615.151V27.327ZM60.407,8.8a1.267,1.267,0,0,1-.172-.8c0-.477.464-2.891.934-5.176l1.113,5.129a2.109,2.109,0,0,1-.16.854.488.488,0,0,0-.229.414v1.707H60.576V9.169c0-.19,0-.288-.169-.369M39.8,13.12h.877v1.024a.488.488,0,0,0,.488.488h1.951a.488.488,0,0,0,.488-.488V13.12H45.31v1.024a.488.488,0,0,0,.488.488h1.951a.488.488,0,0,0,.488-.488V13.12h.927V15.7H48.87a.488.488,0,0,0-.488.488v8.73a.488.488,0,0,0,.488.488h9.9a.488.488,0,0,0,.488-.488V17.071a.488.488,0,0,0-.488-.488H58.43v-.341h1.512a.488.488,0,0,0,.488-.488V13.266a.488.488,0,0,0-.488-.488h-.39V11.9h3.365v.878h-.391a.488.488,0,0,0-.488.488v2.487a.488.488,0,0,0,.488.488h1.512v.341H63.7a.488.488,0,0,0-.488.488v7.852a.488.488,0,0,0,.488.488h6.271l-.451,1.73a.48.48,0,0,0-.016.123v1.429L40.774,35.74v-19.5a.488.488,0,0,0-.488-.488H39.8ZM26.288,14.151c.006-.207.1-.689.878-.689.815,0,.916.543.927.683V17.2a6.056,6.056,0,0,0-.975-.082,6.357,6.357,0,0,0-.83.056Zm-3.8,24.332V25.411h.341v1.268H23.8V20.826c0-.112.038-2.731,3.317-2.731s3.41,2.683,3.414,2.78v5.8h.975V25.411H31.8v4.731a.488.488,0,0,0,.488.488H39.8v5.349l-10.185,2.5c-.864,0-1.361,0-1.381,0Zm104.806,0-5.689-1.4c.015-.776.022-2.836-.01-8.455a.488.488,0,0,0-.488-.485h-.2V23.948h.146a.489.489,0,0,0,.452-.672l-.634-1.561a.488.488,0,0,0-.9,0l-.634,1.561a.489.489,0,0,0,.452.672h.146v1.073h-5.25L113.641,22.8v-.3a3.177,3.177,0,0,0,1.975-2.007,4.691,4.691,0,0,1,3.636-2.652c1.671-.346,1.835-2.363,1.85-2.672.024-.133.2-.975.781-.975s.758.841.782.975c.015.314.179,2.385,1.861,2.674a4.563,4.563,0,0,1,3.627,2.655,3.433,3.433,0,0,0,1.973,1.99v2.875a.487.487,0,0,0,.081.27c.11.166.38.364,1.04.364,1.233,0,1.775,1.554,1.781,1.569a.45.45,0,0,0,.029.069,22.756,22.756,0,0,0,1.817,2.921,4.478,4.478,0,0,0,2.462.962,3.858,3.858,0,0,0,.673,1,2.219,2.219,0,0,0,1.432.638v5.324H128.719c-.02,0-.534-.007-1.428,0" fill="#f5834c"/>
      <rect id="Rectangle_819" data-name="Rectangle 819" width="0.975" height="14.486" transform="translate(75.062 9.852)" fill="#f5834c"/>
      <rect id="Rectangle_820" data-name="Rectangle 820" width="0.975" height="14.486" transform="translate(77.988 9.852)" fill="#f5834c"/>
      <rect id="Rectangle_821" data-name="Rectangle 821" width="0.975" height="14.486" transform="translate(80.915 9.852)" fill="#f5834c"/>
    </g>
  </g>
</svg>
