<svg xmlns="http://www.w3.org/2000/svg" xmlns:xlink="http://www.w3.org/1999/xlink" width="175.695" height="54.79" viewBox="0 0 175.695 54.79">
  <defs>
    <clipPath id="clip-path">
      <rect id="Rectangle_770" data-name="Rectangle 770" width="175.543" height="54.79"/>
    </clipPath>
  </defs>
  <g id="ManagedByLiontrust" transform="translate(-668.844 -753.653)">
    <g id="Group_2379" data-name="Group 2379" transform="translate(668.996 753.653)">
      <g id="Group_2378" data-name="Group 2378" clip-path="url(#clip-path)">
        <path id="Path_1195" data-name="Path 1195" d="M676.623,784.171a4.35,4.35,0,0,1-1.28,1.435,4.113,4.113,0,0,1-2.356.741c-2.238,0-4.043-1.626-4.043-4.486a4.194,4.194,0,0,1,4.092-4.474,3.967,3.967,0,0,1,2.464.838,4.236,4.236,0,0,1,1.1,1.352l-1.676.836a2.119,2.119,0,0,0-.633-.873,1.826,1.826,0,0,0-1.161-.417c-1.363,0-2.082,1.267-2.082,2.678,0,1.854.946,2.777,2.082,2.777a2.035,2.035,0,0,0,1.831-1.257Z" transform="translate(-668.903 -731.557)" fill="#078930"/>
        <path id="Path_1196" data-name="Path 1196" d="M677.235,786.338c-2.68,0-4.2-2.058-4.2-4.5a4.156,4.156,0,0,1,4.163-4.451,4.735,4.735,0,0,1,1.543.251c2.584.9,2.751,3.709,2.751,4.283a4.6,4.6,0,0,1-1.6,3.53,4.067,4.067,0,0,1-2.657.886m1.46-6.569a2.06,2.06,0,0,0-1.483-.622c-1.28,0-2.093,1.124-2.093,2.655,0,2.01,1.124,2.752,2.116,2.752s2.082-.716,2.141-2.489a3.288,3.288,0,0,0-.682-2.3" transform="translate(-665.092 -731.557)" fill="#078930"/>
        <path id="Path_1197" data-name="Path 1197" d="M685.093,777.525v4.713a4.448,4.448,0,0,1-.491,2.393,3.81,3.81,0,0,1-3.147,1.531,4.452,4.452,0,0,1-1.96-.456c-1.628-.836-1.628-2.319-1.616-3.468v-4.713h2.13v5.264a2.255,2.255,0,0,0,.156,1.053,1.524,1.524,0,0,0,1.363.575c1.435,0,1.435-.983,1.446-1.639v-5.252Z" transform="translate(-660.586 -731.43)" fill="#078930"/>
        <path id="Path_1198" data-name="Path 1198" d="M682.24,777.524h3.806a3.56,3.56,0,0,1,2.763.861,2.847,2.847,0,0,1,.67,1.879,2.266,2.266,0,0,1-1.736,2.333l1.95,3.373h-2.332l-1.674-3.014h-1.329v3.014H682.24Zm2.118,1.579v2.286h1.748a1.121,1.121,0,0,0,1.267-1.161c0-1.077-.778-1.114-1.22-1.126Z" transform="translate(-656.525 -731.431)" fill="#078930"/>
        <path id="Path_1199" data-name="Path 1199" d="M691.611,777.524l3.109,8.446h-2.248l-.419-1.352h-3.111l-.419,1.352h-2.25l3.136-8.446Zm-1.137,2.01c-.108.431-.228.873-.348,1.3-.179.635-.5,1.628-.693,2.261h2.141Z" transform="translate(-652.769 -731.431)" fill="#078930"/>
        <path id="Path_1200" data-name="Path 1200" d="M696.9,785.32a3.368,3.368,0,0,1-2.489.981c-2.356,0-3.8-1.913-3.8-4.4,0-2.715,1.759-4.522,4.163-4.522a4.481,4.481,0,0,1,3.721,1.95l-1.6.969a2.2,2.2,0,0,0-1.962-1.2c-1.6,0-2.213,1.328-2.213,2.74a3.141,3.141,0,0,0,.67,2.153,2.253,2.253,0,0,0,2.7.288,1.527,1.527,0,0,0,.682-1.257h-1.89v-1.6h3.673v4.69H696.9Z" transform="translate(-648.74 -731.569)" fill="#078930"/>
        <path id="Path_1201" data-name="Path 1201" d="M695.494,777.525h6.245v1.639H697.6V780.7h3.864v1.6H697.6v2.01h4.511v1.663h-6.615Z" transform="translate(-644.186 -731.43)" fill="#078930"/>
        <path id="Path_1202" data-name="Path 1202" d="M703.778,777.525h3.4c1.388,0,2.62,0,3.362,1.064a3.273,3.273,0,0,1,.479,1.734,3.029,3.029,0,0,1-.288,1.317c-.73,1.508-2.284,1.543-3.433,1.566h-1.4v2.765h-2.118Zm2.118,1.554v2.56h1.268c.79,0,1.746-.023,1.746-1.329,0-1.232-1.064-1.232-1.674-1.232Z" transform="translate(-636.474 -731.43)" fill="#078930"/>
        <path id="Path_1203" data-name="Path 1203" d="M712.026,786.338c-2.68,0-4.2-2.058-4.2-4.5a4.156,4.156,0,0,1,4.163-4.451,4.735,4.735,0,0,1,1.543.251c2.583.9,2.752,3.709,2.752,4.283a4.6,4.6,0,0,1-1.6,3.53,4.068,4.068,0,0,1-2.657.886m1.46-6.569a2.059,2.059,0,0,0-1.483-.622c-1.28,0-2.093,1.124-2.093,2.655,0,2.01,1.124,2.752,2.116,2.752s2.082-.716,2.141-2.489a3.288,3.288,0,0,0-.682-2.3" transform="translate(-632.704 -731.557)" fill="#078930"/>
        <path id="Path_1204" data-name="Path 1204" d="M718.92,777.525c.251.909.5,1.819.778,2.728a21.621,21.621,0,0,1,.813,3.528c.251-1.674.311-1.962.7-3.684.18-.861.371-1.722.55-2.572h2.093l-2.141,8.446H719.53c-.263-.932-.514-1.865-.79-2.788a26.9,26.9,0,0,1-.73-2.8,23.943,23.943,0,0,1-.716,2.738l-.815,2.848H714.3l-2.141-8.446h2.1a58.43,58.43,0,0,1,1.257,6.279,36.9,36.9,0,0,1,.836-3.671l.7-2.609Z" transform="translate(-628.669 -731.43)" fill="#078930"/>
        <path id="Path_1205" data-name="Path 1205" d="M718.459,777.525H724.7v1.639h-4.138V780.7h3.864v1.6h-3.864v2.01h4.509v1.663h-6.615Z" transform="translate(-622.807 -731.43)" fill="#078930"/>
        <path id="Path_1206" data-name="Path 1206" d="M722.528,777.524h3.8a3.56,3.56,0,0,1,2.763.861,2.846,2.846,0,0,1,.668,1.879,2.267,2.267,0,0,1-1.734,2.333l1.95,3.373h-2.333l-1.674-3.014h-1.329v3.014h-2.116Zm2.116,1.579v2.286h1.746a1.123,1.123,0,0,0,1.271-1.161c0-1.077-.78-1.114-1.222-1.126Z" transform="translate(-619.019 -731.431)" fill="#078930"/>
        <path id="Path_1207" data-name="Path 1207" d="M731.2,777.525h3.4c1.388,0,2.62,0,3.362,1.064a3.272,3.272,0,0,1,.477,1.734,3.028,3.028,0,0,1-.286,1.317c-.73,1.508-2.286,1.543-3.433,1.566h-1.4v2.765H731.2Zm2.116,1.554v2.56h1.267c.79,0,1.749-.023,1.749-1.329,0-1.232-1.066-1.232-1.676-1.232Z" transform="translate(-610.944 -731.43)" fill="#078930"/>
        <path id="Path_1208" data-name="Path 1208" d="M735.276,777.524h3.8a3.564,3.564,0,0,1,2.765.861,2.847,2.847,0,0,1,.67,1.879,2.268,2.268,0,0,1-1.736,2.333l1.95,3.373h-2.333l-1.674-3.014h-1.328v3.014h-2.116Zm2.116,1.579v2.286h1.746a1.123,1.123,0,0,0,1.268-1.161c0-1.077-.778-1.114-1.22-1.126Z" transform="translate(-607.152 -731.431)" fill="#078930"/>
        <rect id="Rectangle_768" data-name="Rectangle 768" width="2.105" height="8.446" transform="translate(136.731 46.093)" fill="#078930"/>
        <path id="Path_1209" data-name="Path 1209" d="M741.746,777.525h2.692a5.486,5.486,0,0,1,3.661.993,4.163,4.163,0,0,1,1.209,3.157,5.621,5.621,0,0,1-.216,1.628,3.79,3.79,0,0,1-4.02,2.668h-3.325Zm2.13,1.782v4.964h.645c1.126-.023,2.68-.083,2.68-2.512a2.741,2.741,0,0,0-.442-1.7,2.243,2.243,0,0,0-2.033-.753Z" transform="translate(-601.129 -731.43)" fill="#078930"/>
        <path id="Path_1210" data-name="Path 1210" d="M746.34,777.525h6.245v1.639h-4.14V780.7h3.866v1.6h-3.866v2.01h4.511v1.663H746.34Z" transform="translate(-596.852 -731.43)" fill="#078930"/>
        <path id="Path_1211" data-name="Path 1211" d="M703.129,780.3a1.2,1.2,0,1,1-1.2-1.2,1.2,1.2,0,0,1,1.2,1.2" transform="translate(-639.313 -729.961)" fill="#078930"/>
        <path id="Path_1212" data-name="Path 1212" d="M730.511,780.3a1.2,1.2,0,1,1-1.2-1.2,1.2,1.2,0,0,1,1.2,1.2" transform="translate(-613.822 -729.961)" fill="#078930"/>
        <path id="Path_1213" data-name="Path 1213" d="M772.769,762.025l-7.083-8.371H745.939l7.081,8.371-7.081,8.371h19.748Z" transform="translate(-597.226 -753.652)" fill="#078930"/>
        <path id="Path_1214" data-name="Path 1214" d="M668.922,764.449h5.3V781.2h8.954v4.47H668.922Z" transform="translate(-668.923 -743.603)"/>
        <rect id="Rectangle_769" data-name="Rectangle 769" width="5.304" height="21.221" transform="translate(16.284 20.844)"/>
        <path id="Path_1215" data-name="Path 1215" d="M691.811,786.553c-6.766,0-10.732-5.244-10.732-11.205s3.966-11.209,10.732-11.209,10.724,5.247,10.724,11.209-3.958,11.205-10.724,11.205m0-17.942c-3.1,0-5.426,1.968-5.426,6.737,0,3.1,1.251,6.735,5.426,6.735,3.931,0,5.422-3.456,5.422-6.735,0-3.341-1.491-6.737-5.422-6.737" transform="translate(-657.606 -743.891)"/>
        <path id="Path_1216" data-name="Path 1216" d="M693.233,764.449H698.6l7.718,13.561h.06V764.449H711.2V785.67h-5.3l-7.78-13.353h-.06V785.67h-4.827Z" transform="translate(-646.292 -743.603)"/>
        <path id="Path_1217" data-name="Path 1217" d="M703.588,764.449H719.98v4.113h-5.544V785.67H709.13V768.561h-5.542Z" transform="translate(-636.651 -743.603)"/>
        <path id="Path_1218" data-name="Path 1218" d="M713.136,764.448H723.75c4.771,0,7.689,2.205,7.689,6.975a5.865,5.865,0,0,1-4.377,5.723l4.856,8.523h-5.93l-4.175-7.631h-3.368v7.631h-5.31Zm5.31,9.657H723.3a2.861,2.861,0,0,0,0-5.721h-4.858Z" transform="translate(-627.763 -743.604)"/>
        <path id="Path_1219" data-name="Path 1219" d="M741.455,778.279c0,5.81-4.918,7.986-9,7.986-4.051,0-8.975-2.176-8.975-7.986V764.448h5.306v13.383c0,2.385.927,4.144,3.669,4.144,2.773,0,3.7-1.759,3.7-4.144V764.448h5.3Z" transform="translate(-618.133 -743.604)"/>
        <path id="Path_1220" data-name="Path 1220" d="M737.486,779.609a8.6,8.6,0,0,0,6.14,2.653c1.4,0,3.966-.6,3.966-2.445,0-1.074-.805-1.608-2.383-1.877l-4.414-.716c-3.935-.626-6.083-2.711-6.083-5.841,0-5.129,4.146-7.243,8.676-7.243a12.579,12.579,0,0,1,9.357,4.084l-4.022,2.889a7.331,7.331,0,0,0-5.694-2.68c-1.22,0-3.01.774-3.01,2.145,0,1.133.921,1.7,2.952,2.028l2.028.328c4.233.686,7.718,2,7.718,6.05,0,6.378-5.75,7.571-9.716,7.571a12.163,12.163,0,0,1-9.57-4.321Z" transform="translate(-608.869 -743.89)"/>
        <path id="Path_1221" data-name="Path 1221" d="M744.166,764.449h19.682l-3.288,4.113h-5.546V785.67h-5.3V768.561h-5.544Z" transform="translate(-598.875 -743.603)"/>
      </g>
    </g>
    <path id="Path_1222" data-name="Path 1222" d="M672.972,760.336h-.048l-3.134-4.6v6.953h-.946v-8.6h.983l3.134,4.694,3.132-4.694h.985v8.6h-.971v-6.965Z" transform="translate(0 0.41)"/>
    <path id="Path_1223" data-name="Path 1223" d="M682.981,762.723h-1.044l-1.006-2.273H676.25l-1.02,2.273h-1l3.92-8.662h.909Zm-4.385-7.531-1.966,4.385h3.918Z" transform="translate(5.018 0.38)"/>
    <path id="Path_1224" data-name="Path 1224" d="M686.218,754.093h.946v8.6h-.774l-5.553-7.052v7.052h-.946v-8.6h.91l5.418,6.891Z" transform="translate(10.283 0.41)"/>
    <path id="Path_1225" data-name="Path 1225" d="M693.529,762.723h-1.045l-1.006-2.273H686.8l-1.021,2.273h-.995l3.92-8.662h.909Zm-4.385-7.531-1.966,4.385H691.1Z" transform="translate(14.837 0.38)"/>
    <path id="Path_1226" data-name="Path 1226" d="M694.388,762.911a4.22,4.22,0,0,1-4.375-4.435,4.32,4.32,0,0,1,4.314-4.458,4.53,4.53,0,0,1,3.207,1.143l-.628.738a3.659,3.659,0,0,0-2.616-.983,3.363,3.363,0,0,0-3.269,3.537,3.327,3.327,0,0,0,3.4,3.588,4.043,4.043,0,0,0,2.483-.861v-2.138h-2.616v-.873h3.551V761.6A5.216,5.216,0,0,1,694.388,762.911Z" transform="translate(19.706 0.339)"/>
    <path id="Path_1227" data-name="Path 1227" d="M701.74,754.977h-5.246v2.937h4.694v.886h-4.694v3.008H701.8v.884h-6.279v-8.6h6.218Z" transform="translate(24.835 0.41)"/>
    <path id="Path_1228" data-name="Path 1228" d="M702.983,762.693H700v-8.6h2.983a4.308,4.308,0,1,1,0,8.6Zm0-7.7h-2.014v6.8h2.014a3.406,3.406,0,1,0,0-6.8Z" transform="translate(29.004 0.41)"/>
    <path id="Path_1229" data-name="Path 1229" d="M713.476,756.242a2.079,2.079,0,0,1-1.363,2,2.171,2.171,0,0,1,1.842,2.091c0,1.485-1.242,2.358-3.12,2.358h-3.821v-8.6h3.663C712.371,754.093,713.476,754.929,713.476,756.242Zm-.983.137c0-.861-.676-1.414-1.9-1.414h-2.618v2.96h2.545C711.682,757.926,712.493,757.4,712.493,756.379Zm.479,3.893c0-.944-.786-1.485-2.284-1.485h-2.717v3.034h2.887C712.161,761.821,712.972,761.243,712.972,760.272Z" transform="translate(35.533 0.41)"/>
    <path id="Path_1230" data-name="Path 1230" d="M715.787,762.693h-.981v-3.4l-3.576-5.2h1.178l2.9,4.3,2.925-4.3h1.13l-3.576,5.186Z" transform="translate(39.459 0.41)"/>
  </g>
</svg>
