<?xml version="1.0" encoding="utf-8"?>
<!-- Generator: Adobe Illustrator 27.1.0, SVG Export Plug-In . SVG Version: 6.00 Build 0)  -->
<svg version="1.1" id="Layer_1" xmlns="http://www.w3.org/2000/svg" xmlns:xlink="http://www.w3.org/1999/xlink" x="0px" y="0px"
	 viewBox="0 0 145.4 45.3" style="enable-background:new 0 0 145.4 45.3;" xml:space="preserve">
<style type="text/css">
	.st0{clip-path:url(#SVGID_00000073714877327204129760000007971465525655259045_);}
	.st1{fill:#078930;}
	.st2{fill:#FFFFFF;}
</style>
<g id="ManagedByLiontrustFooter" transform="translate(-668.844 -753.653)">
	<g id="Group_2379" transform="translate(668.97 753.653)">
		<g>
			<defs>
				<rect id="SVGID_1_" x="0" width="145.3" height="45.3"/>
			</defs>
			<clipPath id="SVGID_00000183218878656906555510000002503659456419859098_">
				<use xlink:href="#SVGID_1_"  style="overflow:visible;"/>
			</clipPath>
			<g id="Group_2378" style="clip-path:url(#SVGID_00000183218878656906555510000002503659456419859098_);">
				<path id="Path_1195" class="st1" d="M6.4,43.5c-0.3,0.5-0.6,0.9-1.1,1.2c-0.6,0.4-1.3,0.6-1.9,0.6C1.5,45.3,0,44,0,41.6
					c-0.1-1.9,1.3-3.6,3.2-3.7c0.1,0,0.1,0,0.2,0c0.7,0,1.5,0.2,2,0.7c0.4,0.3,0.7,0.7,0.9,1.1L5,40.4c-0.1-0.3-0.3-0.5-0.5-0.7
					c-0.3-0.2-0.6-0.3-1-0.3c-1.1,0-1.7,1-1.7,2.2c0,1.5,0.8,2.3,1.7,2.3c0.7,0,1.3-0.4,1.5-1L6.4,43.5z"/>
				<path id="Path_1196" class="st1" d="M10,45.3c-2-0.1-3.6-1.9-3.5-3.9c0.1-1.9,1.6-3.3,3.4-3.5c0.4,0,0.9,0.1,1.3,0.2
					c1.4,0.6,2.3,2,2.3,3.5c0,1.1-0.5,2.2-1.3,2.9C11.6,45.1,10.8,45.4,10,45.3 M11.3,39.9c-0.3-0.3-0.8-0.5-1.2-0.5
					c-1.1,0-1.7,0.9-1.7,2.2c0,1.7,0.9,2.3,1.8,2.3s1.7-0.6,1.8-2.1C11.9,41.1,11.7,40.4,11.3,39.9"/>
				<path id="Path_1197" class="st1" d="M20.3,38.1V42c0.1,0.7-0.1,1.4-0.4,2c-0.6,0.8-1.6,1.3-2.6,1.3c-0.6,0-1.1-0.1-1.6-0.4
					c-1-0.6-1.5-1.7-1.3-2.9v-3.9h1.8v4.4c0,0.3,0,0.6,0.1,0.9c0.3,0.3,0.7,0.5,1.1,0.5c1.2,0,1.2-0.8,1.2-1.4v-4.3L20.3,38.1z"/>
				<path id="Path_1198" class="st1" d="M21.3,38.1h3.2c0.8-0.1,1.7,0.2,2.3,0.7c0.4,0.4,0.6,1,0.6,1.6c0.1,0.9-0.6,1.7-1.4,1.9
					l1.6,2.8h-1.9l-1.4-2.5H23v2.5h-1.8V38.1z M23,39.5v1.9h1.4c0.5,0.1,1-0.3,1-0.8c0-0.1,0-0.1,0-0.2c0-0.9-0.6-0.9-1-0.9H23z"/>
				<path id="Path_1199" class="st1" d="M32.1,38.1l2.6,7h-1.9L32.5,44h-2.6l-0.3,1.1h-1.9l2.6-7H32.1z M31.2,39.8
					c-0.1,0.4-0.2,0.7-0.3,1.1c-0.1,0.5-0.4,1.3-0.6,1.9h1.8L31.2,39.8z"/>
				<path id="Path_1200" class="st1" d="M39.9,44.5c-0.5,0.5-1.3,0.8-2.1,0.8c-2,0-3.1-1.6-3.1-3.6c-0.2-1.9,1.2-3.6,3.1-3.7
					c0.1,0,0.2,0,0.3,0c1.2,0,2.4,0.6,3.1,1.6l-1.3,0.8c-0.3-0.6-0.9-1-1.6-1c-1.3,0-1.8,1.1-1.8,2.3c0,0.6,0.2,1.3,0.6,1.8
					c0.6,0.6,1.5,0.7,2.2,0.2c0.3-0.2,0.6-0.6,0.6-1h-1.6v-1.3h3v3.9h-1.4V44.5z"/>
				<path id="Path_1201" class="st1" d="M42.5,38.1h5.2v1.4h-3.4v1.3h3.2v1.3h-3.2v1.7h3.7v1.4h-5.5V38.1z"/>
				<path id="Path_1202" class="st1" d="M55.7,38.1h2.8c1.1,0,2.2,0,2.8,0.9c0.3,0.4,0.4,0.9,0.4,1.4c0,0.4-0.1,0.7-0.2,1.1
					c-0.6,1.2-1.9,1.3-2.8,1.3h-1.2v2.3h-1.8L55.7,38.1z M57.5,39.4v2.1h1c0.7,0,1.4,0,1.4-1.1c0-1-0.9-1-1.4-1L57.5,39.4z"/>
				<path id="Path_1203" class="st1" d="M65.6,45.3c-2-0.1-3.6-1.9-3.5-3.9c0.1-1.9,1.6-3.3,3.4-3.5c0.4,0,0.9,0.1,1.3,0.2
					c1.4,0.6,2.3,2,2.3,3.5c0,1.1-0.5,2.2-1.3,2.9C67.2,45.1,66.4,45.4,65.6,45.3 M66.8,39.9c-0.3-0.3-0.8-0.5-1.2-0.5
					c-1.1,0-1.7,0.9-1.7,2.2c0,1.7,0.9,2.3,1.8,2.3s1.7-0.6,1.8-2.1C67.5,41.1,67.3,40.4,66.8,39.9"/>
				<path id="Path_1204" class="st1" d="M74.7,38.1c0.2,0.8,0.4,1.5,0.6,2.3c0.3,1,0.5,1.9,0.7,2.9c0.2-1.4,0.3-1.6,0.6-3
					c0.1-0.7,0.3-1.4,0.5-2.1h1.7l-1.8,7h-1.8c-0.2-0.8-0.4-1.5-0.7-2.3c-0.2-0.8-0.4-1.5-0.6-2.3c-0.2,0.8-0.4,1.5-0.6,2.3
					l-0.7,2.4h-1.8l-1.8-7h1.7c0.4,1.7,0.8,3.4,1,5.2c0.2-1,0.4-2,0.7-3l0.6-2.2L74.7,38.1z"/>
				<path id="Path_1205" class="st1" d="M79.2,38.1h5.2v1.4h-3.4v1.3h3.2v1.3h-3.2v1.7h3.7v1.4h-5.5L79.2,38.1z"/>
				<path id="Path_1206" class="st1" d="M85.7,38.1h3.1c0.8-0.1,1.7,0.2,2.3,0.7c0.4,0.4,0.6,1,0.6,1.6c0.1,0.9-0.6,1.7-1.4,1.9
					l1.6,2.8h-1.9l-1.4-2.5h-1.1v2.5h-1.8L85.7,38.1z M87.4,39.5v1.9h1.4c0.5,0.1,1-0.3,1-0.8c0-0.1,0-0.1,0-0.2
					c0-0.9-0.6-0.9-1-0.9H87.4z"/>
				<path id="Path_1207" class="st1" d="M99.5,38.1h2.8c1.1,0,2.2,0,2.8,0.9c0.3,0.4,0.4,0.9,0.4,1.4c0,0.4-0.1,0.7-0.2,1.1
					c-0.6,1.2-1.9,1.3-2.8,1.3h-1.2v2.3h-1.8V38.1z M101.3,39.4v2.1h1c0.7,0,1.4,0,1.4-1.1c0-1-0.9-1-1.4-1L101.3,39.4z"/>
				<path id="Path_1208" class="st1" d="M106,38.1h3.1c0.8-0.1,1.7,0.2,2.3,0.7c0.4,0.4,0.6,1,0.6,1.6c0.1,0.9-0.6,1.7-1.4,1.9
					l1.6,2.8h-1.9l-1.4-2.5h-1.1v2.5H106L106,38.1z M107.8,39.5v1.9h1.4c0.5,0.1,1-0.3,1-0.8c0-0.1,0-0.1,0-0.2c0-0.9-0.6-0.9-1-0.9
					H107.8z"/>
				<rect id="Rectangle_768" x="113.2" y="38.1" class="st1" width="1.7" height="7"/>
				<path id="Path_1209" class="st1" d="M116.4,38.1h2.2c1.1-0.1,2.1,0.2,3,0.8c0.7,0.7,1.1,1.6,1,2.6c0,0.5-0.1,0.9-0.2,1.3
					c-0.4,1.4-1.8,2.4-3.3,2.2h-2.8V38.1z M118.1,39.6v4.1h0.5c0.9,0,2.2-0.1,2.2-2.1c0-0.5-0.1-1-0.4-1.4c-0.4-0.5-1.1-0.7-1.7-0.6
					H118.1z"/>
				<path id="Path_1210" class="st1" d="M123.7,38.1h5.2v1.4h-3.4v1.3h3.2v1.3h-3.2v1.7h3.7v1.4h-5.5V38.1z"/>
				<path id="Path_1211" class="st1" d="M52.8,41.7c0,0.5-0.4,1-1,1s-1-0.4-1-1c0-0.5,0.4-1,1-1c0,0,0,0,0,0
					C52.4,40.7,52.8,41.1,52.8,41.7L52.8,41.7"/>
				<path id="Path_1212" class="st1" d="M96.6,41.7c0,0.5-0.4,1-1,1s-1-0.4-1-1c0-0.5,0.4-1,1-1c0,0,0,0,0,0
					C96.1,40.7,96.6,41.1,96.6,41.7L96.6,41.7"/>
				<path id="Path_1213" class="st1" d="M145.3,6.9L139.4,0h-16.3l5.9,6.9l-5.9,6.9h16.3L145.3,6.9z"/>
				<path id="Path_1214" class="st2" d="M0,17.3h4.4v13.9h7.4v3.7H0V17.3z"/>
				<rect id="Rectangle_769" x="13.5" y="17.2" class="st2" width="4.4" height="17.6"/>
				<path id="Path_1215" class="st2" d="M28.3,35.3c-5.6,0-8.9-4.3-8.9-9.3s3.3-9.3,8.9-9.3s8.9,4.3,8.9,9.3S33.9,35.3,28.3,35.3
					 M28.3,20.5c-2.6,0-4.5,1.6-4.5,5.6c0,2.6,1,5.6,4.5,5.6c3.3,0,4.5-2.9,4.5-5.6C32.8,23.3,31.6,20.5,28.3,20.5"/>
				<path id="Path_1216" class="st2" d="M38.8,17.3h4.4l6.4,11.2h0V17.3h4v17.6h-4.4l-6.4-11h0v11h-4V17.3z"/>
				<path id="Path_1217" class="st2" d="M55.4,17.3H69v3.4h-4.6v14.2H60V20.7h-4.6V17.3z"/>
				<path id="Path_1218" class="st2" d="M70.7,17.2h8.8c3.9,0,6.4,1.8,6.4,5.8c0,2.2-1.5,4.2-3.6,4.7l4,7.1h-4.9l-3.5-6.3H75v6.3
					h-4.4L70.7,17.2z M75,25.2h4c1.3,0,2.3-1.1,2.3-2.4c0-1.3-1-2.3-2.3-2.3h-4L75,25.2z"/>
				<path id="Path_1219" class="st2" d="M102.1,28.7c0,4.8-4.1,6.6-7.4,6.6c-3.4,0-7.4-1.8-7.4-6.6V17.2h4.4v11.1c0,2,0.8,3.4,3,3.4
					c2.3,0,3.1-1.5,3.1-3.4V17.2h4.4L102.1,28.7z"/>
				<path id="Path_1220" class="st2" d="M106.4,29.6c1.3,1.4,3.2,2.2,5.1,2.2c1.2,0,3.3-0.5,3.3-2c0-0.9-0.7-1.3-2-1.6l-3.7-0.6
					c-3.3-0.5-5-2.2-5-4.8c0-4.2,3.4-6,7.2-6c2.9,0,5.8,1.2,7.7,3.4l-3.3,2.4c-1.2-1.4-2.9-2.2-4.7-2.2c-1,0-2.5,0.6-2.5,1.8
					c0,0.9,0.8,1.4,2.4,1.7l1.7,0.3c3.5,0.6,6.4,1.7,6.4,5c0,5.3-4.8,6.3-8,6.3c-3,0.1-6-1.2-7.9-3.6L106.4,29.6z"/>
				<path id="Path_1221" class="st2" d="M120.2,17.3h16.3l-2.7,3.4h-4.6v14.2h-4.4V20.7h-4.6V17.3z"/>
			</g>
		</g>
	</g>
	<g id="Group_2380" transform="translate(668.844 754.235)">
		<path id="Path_1222" class="st2" d="M3.4,5.3L3.4,5.3L0.8,1.5v5.8H0V0.1h0.8L3.4,4L6,0.1h0.8v7.1H6V1.5L3.4,5.3z"/>
		<path id="Path_1223" class="st2" d="M15.9,7.2H15l-0.8-1.9h-3.9L9.4,7.2H8.6l3.2-7.2h0.8L15.9,7.2z M12.2,1l-1.6,3.6h3.2L12.2,1z"
			/>
		<path id="Path_1224" class="st2" d="M22.9,0.1h0.8v7.1H23l-4.6-5.8v5.8h-0.8V0.1h0.8l4.5,5.7L22.9,0.1z"/>
		<path id="Path_1225" class="st2" d="M32.7,7.2h-0.9L31,5.4h-3.9l-0.8,1.9h-0.8l3.2-7.2h0.8L32.7,7.2z M29.1,1l-1.6,3.6h3.2L29.1,1
			z"/>
		<path id="Path_1226" class="st2" d="M37.4,7.4c-1.9,0.1-3.5-1.4-3.6-3.4c0-0.1,0-0.2,0-0.3c-0.1-2,1.5-3.6,3.5-3.7
			c0,0,0.1,0,0.1,0c1,0,1.9,0.3,2.7,0.9l-0.5,0.6c-0.6-0.5-1.4-0.8-2.2-0.8c-1.5,0-2.7,1.3-2.7,2.9c0,0,0,0,0,0.1
			c-0.1,1.5,1,2.8,2.5,3c0.1,0,0.2,0,0.3,0c0.7,0,1.5-0.3,2.1-0.7V4.2h-2.2V3.4h2.9v2.8C39.5,7,38.5,7.4,37.4,7.4z"/>
		<path id="Path_1227" class="st2" d="M47.8,0.9h-4.3v2.4h3.9V4h-3.9v2.5h4.4v0.7h-5.2V0.1h5.1L47.8,0.9z"/>
		<path id="Path_1228" class="st2" d="M52.3,7.2h-2.5V0.1h2.5c2-0.1,3.7,1.4,3.8,3.4c0.1,2-1.4,3.7-3.4,3.8
			C52.5,7.2,52.4,7.2,52.3,7.2z M52.3,0.9h-1.7v5.6h1.7c1.6,0.1,2.9-1.1,3-2.7c0.1-1.6-1.1-2.9-2.7-3C52.4,0.9,52.3,0.9,52.3,0.9
			L52.3,0.9z"/>
		<path id="Path_1229" class="st2" d="M66.3,1.9c0,0.7-0.4,1.4-1.1,1.7c0.9,0.1,1.5,0.9,1.5,1.7c0,1.2-1,2-2.6,2H61V0.1h3
			C65.4,0.1,66.3,0.8,66.3,1.9z M65.5,2c0-0.7-0.6-1.2-1.6-1.2h-2.2v2.5h2.1C64.9,3.3,65.5,2.9,65.5,2L65.5,2z M65.9,5.2
			C65.9,4.5,65.3,4,64,4h-2.2v2.5h2.4C65.3,6.5,65.9,6,65.9,5.2L65.9,5.2z"/>
		<path id="Path_1230" class="st2" d="M71.5,7.2h-0.8V4.4l-3-4.3h1l2.4,3.6l2.4-3.6h0.9l-3,4.3V7.2z"/>
	</g>
</g>
</svg>
