<svg width="60" height="60" viewBox="0 0 60 60" fill="none" xmlns="http://www.w3.org/2000/svg">
<path d="M30 59.5C46.2924 59.5 59.5 46.2924 59.5 30C59.5 13.7076 46.2924 0.5 30 0.5C13.7076 0.5 0.5 13.7076 0.5 30C0.5 46.2924 13.7076 59.5 30 59.5Z" stroke="#414855"/>
<path fill-rule="evenodd" clip-rule="evenodd" d="M29.9119 10.898C33.6726 10.898 37.3487 12.0131 40.4756 14.1024C43.6024 16.1917 46.0395 19.1613 47.4786 22.6357C48.9177 26.11 49.2943 29.9331 48.5606 33.6214C47.8269 37.3098 46.016 40.6978 43.3569 43.3569C40.6977 46.0161 37.3098 47.827 33.6214 48.5606C29.933 49.2943 26.11 48.9178 22.6356 47.4786C19.1613 46.0395 16.1917 43.6024 14.1024 40.4756C12.0131 37.3488 10.8979 33.6726 10.8979 29.912C10.9035 24.8709 12.9085 20.0378 16.4732 16.4732C20.0378 12.9086 24.8708 10.9036 29.9119 10.898V10.898ZM11.7899 29.912C11.7957 34.6034 13.6184 39.1103 16.8754 42.4868C20.1325 45.8634 24.5708 47.8472 29.2589 48.022L27.2389 47.022C27.164 46.9855 27.1009 46.9286 27.0569 46.8578C27.0128 46.7871 26.9896 46.7053 26.9899 46.622V40.192L19.9349 39.017C19.8637 39.0047 19.7965 38.9753 19.7391 38.9312C19.6818 38.8871 19.6361 38.8297 19.6059 38.764L17.0979 33.35C17.052 33.2503 17.0441 33.1371 17.0759 33.032L19.5849 24.832C19.613 24.7406 19.6696 24.6606 19.7464 24.6037C19.8233 24.5468 19.9163 24.5161 20.0119 24.516H27.4389C27.5193 24.5161 27.5982 24.5378 27.6672 24.579C27.7362 24.6202 27.7928 24.6793 27.8309 24.75L29.7049 28.23H34.0309L34.9849 26.213L31.8849 20.456H24.1099C23.9215 20.4557 23.7359 20.5022 23.5699 20.5914C23.4039 20.6806 23.2627 20.8097 23.1589 20.967C22.9633 21.2243 22.7044 21.4266 22.4073 21.554C22.1102 21.6814 21.7852 21.7296 21.4639 21.694H19.4979C19.3974 21.694 19.2999 21.66 19.2211 21.5975C19.1423 21.5351 19.0869 21.4479 19.0639 21.35L18.3369 18.253C18.3173 18.1697 18.322 18.0825 18.3506 18.0018C18.3791 17.9212 18.4303 17.8504 18.4979 17.798L23.8479 13.637L23.6879 12.888C20.2015 14.1678 17.1914 16.4862 15.0639 19.5304C12.9363 22.5746 11.7936 26.198 11.7899 29.912V29.912ZM29.9119 11.789C28.0902 11.7875 26.2787 12.0616 24.5389 12.602L24.7789 13.726C24.7959 13.8078 24.7896 13.8928 24.7608 13.9713C24.732 14.0497 24.6818 14.1186 24.6159 14.17L19.2699 18.329L19.8479 20.798H21.4649C21.9939 20.798 22.2599 20.706 22.4169 20.47C22.6019 20.1902 22.8534 19.9606 23.1489 19.8018C23.4443 19.643 23.7745 19.5599 24.1099 19.56H32.1449C32.2252 19.56 32.3039 19.5818 32.3728 19.623C32.4416 19.6642 32.498 19.7233 32.5359 19.794L35.8729 25.983C35.906 26.0441 35.9243 26.1122 35.9262 26.1817C35.9281 26.2512 35.9136 26.3201 35.8839 26.383L34.7129 28.859C34.6771 28.9349 34.6205 28.9991 34.5498 29.0442C34.479 29.0894 34.3969 29.1135 34.313 29.114H29.4369C29.3566 29.1139 29.2777 29.0921 29.2087 29.051C29.1397 29.0098 29.0831 28.9507 29.0449 28.88L27.1709 25.4H20.3399L17.9749 33.13L20.3149 38.177L27.5099 39.377C27.6136 39.3947 27.7077 39.4484 27.7756 39.5288C27.8435 39.6091 27.8808 39.7108 27.8809 39.816V46.348L31.1979 47.989C35.7266 47.6664 39.9682 45.652 43.0799 42.346V34.071H40.0589C39.987 34.0709 39.9161 34.0534 39.8524 34.0199C39.7886 33.9865 39.7339 33.9382 39.6929 33.879L36.6789 29.546C36.6274 29.4711 36.5999 29.3824 36.5999 29.2915C36.5999 29.2006 36.6274 29.1119 36.6789 29.037L38.8299 25.942C38.87 25.8848 38.9229 25.8378 38.9844 25.8046C39.0458 25.7715 39.1142 25.7531 39.1839 25.751C39.2541 25.7472 39.3242 25.7609 39.3877 25.7909C39.4513 25.8209 39.5063 25.8663 39.5479 25.923L43.1639 30.57L44.7759 30.164C45.9149 29.878 47.394 29.507 48.027 29.337C47.8719 24.6341 45.8961 20.1754 42.5164 16.9015C39.1367 13.6275 34.6174 11.7945 29.9119 11.789V11.789ZM39.2119 26.95L37.584 29.293L40.2839 33.18H43.5219C43.5806 33.1799 43.6386 33.1913 43.6928 33.2137C43.747 33.236 43.7962 33.2689 43.8376 33.3103C43.8791 33.3518 43.9119 33.401 43.9343 33.4552C43.9566 33.5093 43.9681 33.5674 43.9679 33.626V41.326C46.5213 38.1947 47.9493 34.2967 48.0229 30.257C47.4439 30.409 46.4529 30.657 44.9829 31.028L43.0929 31.505C43.0091 31.5277 42.9203 31.5249 42.838 31.497C42.7557 31.469 42.6836 31.4171 42.6309 31.348L39.2119 26.95Z" fill="#414855"/>
</svg>
