<svg xmlns="http://www.w3.org/2000/svg" width="60" height="60" viewBox="0 0 60 60"><defs><style>.a,.d{fill:none;}.a{stroke:#fff;}.b{fill:#fff;fill-rule:evenodd;}.c{stroke:none;}</style></defs><g transform="translate(-327 -166)"><g class="a" transform="translate(327 166)"><circle class="c" cx="30" cy="30" r="30"/><circle class="d" cx="30" cy="30" r="29.5"/></g><g transform="translate(337.898 176.898)"><g transform="translate(0 0)"><path class="b" d="M19.014,0A19.014,19.014,0,1,1,0,19.014,19.035,19.035,0,0,1,19.014,0ZM.892,19.014A18.145,18.145,0,0,0,18.361,37.124l-2.02-1a.443.443,0,0,1-.249-.4V29.294L9.037,28.119a.445.445,0,0,1-.329-.253L6.2,22.452a.449.449,0,0,1-.022-.318l2.509-8.2a.447.447,0,0,1,.427-.316h7.427a.446.446,0,0,1,.392.234l1.874,3.48h4.326l.954-2.017-3.1-5.757H13.212a1.137,1.137,0,0,0-.951.511,1.87,1.87,0,0,1-1.695.727H8.6a.446.446,0,0,1-.434-.344L7.439,7.355A.446.446,0,0,1,7.6,6.9l5.35-4.161-.16-.749A18.154,18.154,0,0,0,.892,19.014ZM19.014.891a18.062,18.062,0,0,0-5.373.813l.24,1.124a.448.448,0,0,1-.163.444L8.372,7.431,8.95,9.9h1.617c.529,0,.795-.092.952-.328a2.029,2.029,0,0,1,1.693-.91h8.035a.444.444,0,0,1,.391.234l3.337,6.189a.443.443,0,0,1,.011.4l-1.171,2.476a.445.445,0,0,1-.4.255H18.539a.446.446,0,0,1-.392-.234l-1.874-3.48H9.442L7.077,22.232l2.34,5.047,7.195,1.2a.446.446,0,0,1,.371.439V35.45L20.3,37.091a18.082,18.082,0,0,0,11.882-5.643V23.173H29.161a.446.446,0,0,1-.366-.192l-3.014-4.333a.449.449,0,0,1,0-.509l2.151-3.095a.449.449,0,0,1,.354-.191.423.423,0,0,1,.364.172l3.616,4.647,1.612-.406c1.139-.286,2.618-.657,3.251-.827A18.146,18.146,0,0,0,19.014.891Zm9.3,15.161-1.628,2.343,2.7,3.887h3.238a.445.445,0,0,1,.446.446v7.7a18.036,18.036,0,0,0,4.055-11.069c-.579.152-1.57.4-3.04.771l-1.89.477a.437.437,0,0,1-.462-.157Z" transform="translate(0 0)"/></g></g></g></svg>