<svg xmlns="http://www.w3.org/2000/svg" width="35.312" height="78.309" viewBox="0 0 35.312 78.309">
  <path id="female" d="M-1158.622,21040.074v-15.789a.813.813,0,0,0-.724-.877.813.813,0,0,0-.724.877v15.789a3.141,3.141,0,0,1-3.137,3.154,3.14,3.14,0,0,1-3.132-3.154v-16.666h-8.191l7.542-23.982-.011-5.461-4.906,16.092a2.621,2.621,0,0,1-3.364,1.568,2.627,2.627,0,0,1-1.574-3.369s3.6-16.693,7.378-24.166c.871-1.727,3.512-2.9,5.445-2.9h9.348c1.933,0,4.568,1.174,5.445,2.9,3.776,7.467,7.378,24.166,7.378,24.166a2.627,2.627,0,0,1-1.574,3.369,2.619,2.619,0,0,1-3.364-1.568l-4.88-16.092-.01,5.461,7.515,23.982h-8.186v16.666a3.146,3.146,0,0,1-3.142,3.154A3.14,3.14,0,0,1-1158.622,21040.074Zm-7.911-67.973a7.187,7.187,0,0,1,7.188-7.182,7.182,7.182,0,0,1,7.182,7.182,7.18,7.18,0,0,1-7.182,7.182A7.184,7.184,0,0,1-1166.533,20972.1Z" transform="translate(1177.001 -20964.92)" fill="#fff"/>
</svg>
