<svg xmlns="http://www.w3.org/2000/svg" width="30.36" height="81.08" viewBox="0 0 30.36 81.08">
  <path id="male" d="M-1166.127,21046a3.606,3.606,0,0,1-3.6-3.6v-46.844c0-.592-1.046-.592-1.046,0v15.992a3.075,3.075,0,0,1-3.026,3.275,3.21,3.21,0,0,1-3.19-3.275l-.011-17.768c0-8.172,7.247-12.619,15.175-12.619s15.185,4.447,15.185,12.619l-.021,17.768a3.168,3.168,0,0,1-3.143,3.275,3.094,3.094,0,0,1-3.053-3.27v-16c0-.592-1.072-.592-1.072,0v46.844a3.6,3.6,0,0,1-3.6,3.6h-.005a3.6,3.6,0,0,1-3.6-3.6v-27.545a.761.761,0,0,0-.687-.723.765.765,0,0,0-.692.723v27.545a3.6,3.6,0,0,1-3.6,3.6Zm-2.873-73.9a7.184,7.184,0,0,1,7.183-7.182,7.184,7.184,0,0,1,7.183,7.182,7.184,7.184,0,0,1-7.183,7.184A7.184,7.184,0,0,1-1169,20972.1Z" transform="translate(1177.002 -20964.92)" fill="#fff"/>
</svg>
