<svg width="31" height="37" viewBox="0 0 31 37" fill="none" xmlns="http://www.w3.org/2000/svg">
<path d="M6.05469 30.7662C5.9668 31.5181 5.68848 32.0992 5.21973 32.5093C4.75423 32.9162 4.13411 33.1197 3.35938 33.1197C2.51953 33.1197 1.8457 32.8186 1.33789 32.2164C0.833333 31.6142 0.581055 30.8085 0.581055 29.7994V29.1158C0.581055 28.455 0.698242 27.8739 0.932617 27.3726C1.17025 26.8713 1.50553 26.4872 1.93848 26.2203C2.37142 25.9501 2.87272 25.815 3.44238 25.815C4.19759 25.815 4.80306 26.0266 5.25879 26.4498C5.71452 26.8697 5.97982 27.4524 6.05469 28.1978H5.1123C5.03092 27.6314 4.85352 27.2213 4.58008 26.9673C4.3099 26.7134 3.93066 26.5865 3.44238 26.5865C2.84342 26.5865 2.37305 26.8078 2.03125 27.2505C1.69271 27.6933 1.52344 28.3231 1.52344 29.1402V29.8287C1.52344 30.6002 1.68457 31.2138 2.00684 31.6695C2.3291 32.1252 2.77995 32.3531 3.35938 32.3531C3.88021 32.3531 4.27897 32.2359 4.55566 32.0015C4.83561 31.7639 5.02116 31.3521 5.1123 30.7662H6.05469ZM8.28125 32.2554H11.6504V33.022H7.33887V25.9127H8.28125V32.2554ZM17.8662 29.6968C17.8662 30.3935 17.749 31.0022 17.5146 31.523C17.2803 32.0406 16.9482 32.4361 16.5186 32.7095C16.0889 32.983 15.5876 33.1197 15.0146 33.1197C14.4548 33.1197 13.9583 32.983 13.5254 32.7095C13.0924 32.4328 12.7555 32.0406 12.5146 31.5328C12.277 31.0217 12.1549 30.4309 12.1484 29.7603V29.2476C12.1484 28.564 12.2673 27.9602 12.5049 27.4361C12.7425 26.912 13.0778 26.5116 13.5107 26.2349C13.9469 25.955 14.445 25.815 15.0049 25.815C15.5745 25.815 16.0758 25.9533 16.5088 26.23C16.945 26.5035 17.2803 26.9022 17.5146 27.4263C17.749 27.9472 17.8662 28.5543 17.8662 29.2476V29.6968ZM16.9336 29.2379C16.9336 28.3948 16.7643 27.7486 16.4258 27.2994C16.0872 26.8469 15.6136 26.6207 15.0049 26.6207C14.4124 26.6207 13.9453 26.8469 13.6035 27.2994C13.265 27.7486 13.0908 28.3736 13.0811 29.1744V29.6968C13.0811 30.5139 13.252 31.1568 13.5938 31.6255C13.9388 32.091 14.4124 32.3238 15.0146 32.3238C15.6201 32.3238 16.0889 32.1041 16.4209 31.6646C16.7529 31.2219 16.9238 30.5888 16.9336 29.7652V29.2379ZM21.3672 29.8531C20.5632 29.622 19.9772 29.3388 19.6094 29.0035C19.2448 28.6649 19.0625 28.2483 19.0625 27.7535C19.0625 27.1936 19.2855 26.7313 19.7314 26.3668C20.1807 25.9989 20.7633 25.815 21.4795 25.815C21.9678 25.815 22.4023 25.9094 22.7832 26.0982C23.1673 26.287 23.4635 26.5474 23.6719 26.8795C23.8835 27.2115 23.9893 27.5744 23.9893 27.9683H23.0469C23.0469 27.5386 22.9102 27.2017 22.6367 26.9576C22.3633 26.7102 21.9775 26.5865 21.4795 26.5865C21.0173 26.5865 20.6559 26.689 20.3955 26.8941C20.1383 27.0959 20.0098 27.3775 20.0098 27.7388C20.0098 28.0285 20.1318 28.2743 20.376 28.4761C20.6234 28.6747 21.0417 28.857 21.6309 29.023C22.2233 29.189 22.6855 29.3729 23.0176 29.5748C23.3529 29.7733 23.6003 30.0061 23.7598 30.273C23.9225 30.5399 24.0039 30.8541 24.0039 31.2154C24.0039 31.7916 23.7793 32.2538 23.3301 32.6021C22.8809 32.9472 22.2803 33.1197 21.5283 33.1197C21.04 33.1197 20.5843 33.0269 20.1611 32.8414C19.738 32.6526 19.4108 32.3954 19.1797 32.0699C18.9518 31.7444 18.8379 31.3749 18.8379 30.9615H19.7803C19.7803 31.3912 19.9382 31.7313 20.2539 31.982C20.5729 32.2294 20.9977 32.3531 21.5283 32.3531C22.0231 32.3531 22.4023 32.2522 22.666 32.0504C22.9297 31.8485 23.0615 31.5735 23.0615 31.2252C23.0615 30.8769 22.9395 30.6083 22.6953 30.4195C22.4512 30.2274 22.0085 30.0386 21.3672 29.8531ZM29.2285 29.7359H26.1475V32.2554H29.7266V33.022H25.21V25.9127H29.6777V26.6841H26.1475V28.9693H29.2285V29.7359Z" fill="white"/>
<path d="M26.6274 2.47955e-05L4 22.6274L5.41421 24.0417L28.0416 1.41424L26.6274 2.47955e-05Z" fill="white"/>
<path d="M28.0424 22.6299L5.41501 0.00244141L4.0008 1.41665L26.6282 24.0441L28.0424 22.6299Z" fill="white"/>
</svg>
