<svg id="liontrust-identity-vector-Courage-Power-Pride-On-Dark" xmlns="http://www.w3.org/2000/svg" width="165.92" height="51.79" viewBox="0 0 165.92 51.79">
  <g id="_03" data-name="03">
    <path id="Path_938" data-name="Path 938" d="M64.39,95.69a4,4,0,0,1-1.21,1.36,3.94,3.94,0,0,1-2.22.7c-2.12,0-3.83-1.54-3.83-4.24A4,4,0,0,1,61,89.28a3.72,3.72,0,0,1,2.33.79,4.06,4.06,0,0,1,1,1.28l-1.58.79a2.14,2.14,0,0,0-.6-.83,1.76,1.76,0,0,0-1.1-.39c-1.29,0-2,1.2-2,2.53,0,1.75.9,2.62,2,2.62a1.92,1.92,0,0,0,1.73-1.18Z" transform="translate(-57.09 -45.96)" fill="#fff"/>
    <path id="Path_939" data-name="Path 939" d="M68.57,97.74a4.24,4.24,0,0,1,0-8.46,4.46,4.46,0,0,1,1.46.24c2.44.84,2.6,3.5,2.6,4a4.35,4.35,0,0,1-1.52,3.34,3.86,3.86,0,0,1-2.54.88ZM70,91.53a2,2,0,0,0-1.4-.59c-1.21,0-2,1.06-2,2.51,0,1.9,1.06,2.6,2,2.6a2.072,2.072,0,0,0,2-2.35,3.13,3.13,0,0,0-.6-2.17Z" transform="translate(-57.09 -45.96)" fill="#fff"/>
    <path id="Path_940" data-name="Path 940" d="M80.26,89.53V94a4.11,4.11,0,0,1-.47,2.26,3.59,3.59,0,0,1-3,1.45A4.25,4.25,0,0,1,75,97.26c-1.54-.79-1.54-2.19-1.53-3.28V89.53h2v5a2.11,2.11,0,0,0,.15,1,1.44,1.44,0,0,0,1.29.54c1.36,0,1.36-.93,1.37-1.55v-5Z" transform="translate(-57.09 -45.96)" fill="#fff"/>
    <path id="Path_941" data-name="Path 941" d="M81.4,89.53H85a3.37,3.37,0,0,1,2.61.81,2.7,2.7,0,0,1,.63,1.78,2.13,2.13,0,0,1-1.64,2.2l1.85,3.19H86.24l-1.58-2.85H83.4v2.85h-2Zm2,1.49v2.16h1.65a1.06,1.06,0,0,0,1.2-1.1c0-1-.73-1-1.15-1.06Z" transform="translate(-57.09 -45.96)" fill="#fff"/>
    <path id="Path_942" data-name="Path 942" d="M93.81,89.53l2.94,8H94.62l-.4-1.28H91.28l-.39,1.28H88.76l3-8Zm-1.08,1.9c-.1.4-.21.82-.33,1.23-.17.6-.47,1.54-.65,2.14h2Z" transform="translate(-57.09 -45.96)" fill="#fff"/>
    <path id="Path_943" data-name="Path 943" d="M102.61,96.76a3.17,3.17,0,0,1-2.35.93c-2.23,0-3.6-1.81-3.6-4.16a3.93,3.93,0,0,1,3.94-4.27,4.22,4.22,0,0,1,3.51,1.84l-1.51.9a2.09,2.09,0,0,0-1.86-1.13c-1.51,0-2.09,1.26-2.09,2.59a3,3,0,0,0,.63,2,2.16,2.16,0,0,0,2.56.27,1.42,1.42,0,0,0,.64-1.19H100.7V93.08h3.47v4.43h-1.56Z" transform="translate(-57.09 -45.96)" fill="#fff"/>
    <path id="Path_944" data-name="Path 944" d="M105.59,89.53h5.9v1.55h-3.91v1.44h3.65V94h-3.65v1.9h4.26v1.57h-6.25Z" transform="translate(-57.09 -45.96)" fill="#fff"/>
    <path id="Path_945" data-name="Path 945" d="M120.71,89.53h3.21c1.31,0,2.48,0,3.18,1a3.16,3.16,0,0,1,.45,1.64,2.93,2.93,0,0,1-.27,1.25c-.69,1.42-2.16,1.46-3.25,1.48h-1.32v2.61h-2Zm2,1.47v2.42h1.2c.74,0,1.65,0,1.65-1.26S124.55,91,124,91Z" transform="translate(-57.09 -45.96)" fill="#fff"/>
    <path id="Path_946" data-name="Path 946" d="M132.07,97.74a4.231,4.231,0,0,1-.07-8.46,4.38,4.38,0,0,1,1.46.24c2.44.84,2.6,3.5,2.6,4a4.35,4.35,0,0,1-1.51,3.34,3.88,3.88,0,0,1-2.48.88Zm1.38-6.21a2,2,0,0,0-1.41-.59c-1.21,0-2,1.06-2,2.51,0,1.9,1.06,2.6,2,2.6a2.072,2.072,0,0,0,2-2.35A3.13,3.13,0,0,0,133.45,91.53Z" transform="translate(-57.09 -45.96)" fill="#fff"/>
    <path id="Path_947" data-name="Path 947" d="M142.4,89.53c.23.86.47,1.72.73,2.58a20.57,20.57,0,0,1,.77,3.33,35.323,35.323,0,0,1,.66-3.48c.17-.82.35-1.63.52-2.43h2l-2,8H143c-.25-.88-.48-1.76-.74-2.63a23.478,23.478,0,0,1-.69-2.65,25.151,25.151,0,0,1-.68,2.59l-.77,2.69H138l-2-8h2a56,56,0,0,1,1.19,5.93A33.92,33.92,0,0,1,140,92l.65-2.46Z" transform="translate(-57.09 -45.96)" fill="#fff"/>
    <path id="Path_948" data-name="Path 948" d="M147.5,89.53h5.9v1.55h-3.91v1.44h3.65V94h-3.65v1.9h4.26v1.57H147.5Z" transform="translate(-57.09 -45.96)" fill="#fff"/>
    <path id="Path_949" data-name="Path 949" d="M154.93,89.53h3.59a3.34,3.34,0,0,1,2.61.81,2.66,2.66,0,0,1,.64,1.78,2.14,2.14,0,0,1-1.64,2.2L162,97.51h-2.21l-1.58-2.85h-1.25v2.85h-2Zm2,1.49v2.16h1.65a1.06,1.06,0,0,0,1.2-1.1c0-1-.74-1-1.16-1.06Z" transform="translate(-57.09 -45.96)" fill="#fff"/>
    <path id="Path_950" data-name="Path 950" d="M170.76,89.53H174c1.31,0,2.48,0,3.18,1a3.16,3.16,0,0,1,.45,1.64,2.93,2.93,0,0,1-.27,1.25c-.69,1.42-2.16,1.46-3.25,1.48h-1.32v2.61h-2Zm2,1.47v2.42H174c.74,0,1.65,0,1.65-1.26S174.6,91,174,91Z" transform="translate(-57.09 -45.96)" fill="#fff"/>
    <path id="Path_951" data-name="Path 951" d="M178.19,89.53h3.6a3.35,3.35,0,0,1,2.61.81,2.7,2.7,0,0,1,.63,1.78,2.13,2.13,0,0,1-1.64,2.2l1.85,3.19H183l-1.58-2.85h-1.26v2.85h-2Zm2,1.49v2.16h1.65a1.06,1.06,0,0,0,1.2-1.1c0-1-.73-1-1.15-1.06Z" transform="translate(-57.09 -45.96)" fill="#fff"/>
    <path id="Path_952" data-name="Path 952" d="M188.32,89.53v8h-2v-8Z" transform="translate(-57.09 -45.96)" fill="#fff"/>
    <path id="Path_953" data-name="Path 953" d="M190,89.53h2.54a5.13,5.13,0,0,1,3.46.94,3.9,3.9,0,0,1,1.15,3,5.39,5.39,0,0,1-.21,1.54,3.58,3.58,0,0,1-3.8,2.52H190Zm2,1.68V95.9h.61c1.07,0,2.54-.07,2.54-2.37a2.62,2.62,0,0,0-.42-1.61,2.12,2.12,0,0,0-1.92-.71Z" transform="translate(-57.09 -45.96)" fill="#fff"/>
    <path id="Path_954" data-name="Path 954" d="M198.38,89.53h5.91v1.55h-3.91v1.44H204V94h-3.65v1.9h4.26v1.57h-6.26Z" transform="translate(-57.09 -45.96)" fill="#fff"/>
    <circle id="Ellipse_64" data-name="Ellipse 64" cx="1.13" cy="1.13" r="1.13" transform="translate(58.05 46.45)" fill="#fff"/>
    <circle id="Ellipse_65" data-name="Ellipse 65" cx="1.13" cy="1.13" r="1.13" transform="translate(108.03 46.45)" fill="#fff"/>
  </g>
  <g id="Layer_5" data-name="Layer 5">
    <path id="Path_955" data-name="Path 955" d="M165.92,7.91,159.22,0H140.56l6.69,7.91-6.69,7.91h18.66Z" fill="#fff"/>
    <path id="Path_956" data-name="Path 956" d="M0,19.7H5.01V35.53h8.47v4.23H0Z" fill="#fff"/>
    <rect id="Rectangle_357" data-name="Rectangle 357" width="5.01" height="20.06" transform="translate(15.39 19.7)" fill="#fff"/>
    <path id="Path_957" data-name="Path 957" d="M89.42,86.28c-6.39,0-10.14-5-10.14-10.59S83,65.1,89.42,65.1s10.14,5,10.14,10.59S95.82,86.28,89.42,86.28m0-17c-2.93,0-5.12,1.86-5.12,6.36,0,2.93,1.18,6.37,5.12,6.37,3.72,0,5.13-3.27,5.13-6.37s-1.41-6.36-5.13-6.36" transform="translate(-57.09 -45.96)" fill="#fff"/>
    <path id="Path_958" data-name="Path 958" d="M44.37,19.7h5.07l7.29,12.82h.06V19.7h4.56V39.76H56.34L48.99,27.14h-.06V39.76H44.37Z" fill="#fff"/>
    <path id="Path_959" data-name="Path 959" d="M63.27,19.7H78.76v3.89H73.52V39.76H68.5V23.59H63.27Z" fill="#fff"/>
    <path id="Path_960" data-name="Path 960" d="M137.79,65.66h10c4.51,0,7.27,2.09,7.27,6.59A5.54,5.54,0,0,1,151,77.66l4.59,8.06h-5.61L146,78.51h-3.18v7.21h-5Zm5,9.13h4.59a2.71,2.71,0,0,0,0-5.41h-4.59Z" transform="translate(-57.09 -45.96)" fill="#fff"/>
    <path id="Path_961" data-name="Path 961" d="M173.65,78.73c0,5.5-4.64,7.55-8.5,7.55s-8.48-2-8.48-7.55V65.66h5V78.31c0,2.25.88,3.92,3.47,3.92s3.49-1.67,3.49-3.92V65.66h5Z" transform="translate(-57.09 -45.96)" fill="#fff"/>
    <path id="Path_962" data-name="Path 962" d="M178.66,79.72a8.13,8.13,0,0,0,5.8,2.51c1.33,0,3.75-.57,3.75-2.31,0-1-.76-1.52-2.25-1.78l-4.17-.67c-3.72-.6-5.75-2.57-5.75-5.53,0-4.84,3.92-6.84,8.2-6.84a11.88,11.88,0,0,1,8.84,3.9l-3.8,2.73a6.94,6.94,0,0,0-5.38-2.53c-1.15,0-2.85.73-2.85,2,0,1.07.87,1.61,2.79,1.92l1.92.31c4,.65,7.29,1.89,7.29,5.72,0,6-5.43,7.15-9.18,7.15a11.49,11.49,0,0,1-9-4.08Z" transform="translate(-57.09 -45.96)" fill="#fff"/>
    <path id="Path_963" data-name="Path 963" d="M137.32,19.7h18.61l-3.11,3.89h-5.24V39.76h-5.02V23.59h-5.24Z" fill="#fff"/>
  </g>
</svg>
