<svg width="379" height="119" viewBox="0 0 379 119" fill="none" xmlns="http://www.w3.org/2000/svg">
<g clip-path="url(#clip0_2_38)">
<mask id="mask0_2_38" style="mask-type:alpha" maskUnits="userSpaceOnUse" x="0" y="0" width="379" height="119">
<path d="M378.409 18.04L363.126 0H320.569L335.827 18.04L320.569 36.08H363.126L378.409 18.04Z" fill="#11A63C"/>
<path d="M0 44.929H11.426V81.029H30.743V90.679H0V44.929Z" fill="white"/>
<path d="M46.525 44.929H35.099V90.679H46.525V44.929Z" fill="white"/>
<path d="M73.734 91.952C59.16 91.952 50.608 80.552 50.608 67.804C50.608 55.056 59.092 43.652 73.734 43.652C88.376 43.652 96.86 55.052 96.86 67.804C96.86 80.556 88.328 91.952 73.734 91.952ZM73.734 53.181C67.052 53.181 62.057 57.423 62.057 67.681C62.057 74.363 64.748 82.209 73.734 82.209C82.218 82.209 85.434 74.751 85.434 67.681C85.434 60.611 82.218 53.181 73.734 53.181Z" fill="white"/>
<path d="M101.193 44.929H112.756L129.382 74.167H129.523V44.929H139.923V90.679H128.492L111.73 61.897H111.593V90.679H101.193V44.929Z" fill="white"/>
<path d="M144.297 44.929H179.627V53.801H167.674V90.679H156.227V53.801H144.297V44.929Z" fill="white"/>
<path d="M184.049 44.929H206.859C217.145 44.929 223.439 49.696 223.439 59.959C223.475 62.7493 222.586 65.473 220.911 67.705C219.236 69.9369 216.869 71.5516 214.18 72.297L224.648 90.679H211.85L202.773 74.235H195.521V90.679H184.121L184.049 44.929ZM195.449 65.751H205.917C207.487 65.6531 208.96 64.9605 210.037 63.8143C211.114 62.6682 211.713 61.1547 211.713 59.582C211.713 58.0094 211.114 56.4958 210.037 55.3497C208.96 54.2035 207.487 53.511 205.917 53.413H195.452L195.449 65.751Z" fill="white"/>
<path d="M265.838 74.737C265.838 87.281 255.256 91.956 246.452 91.956C237.648 91.956 227.112 87.395 227.112 74.737V44.929H238.512V73.779C238.512 78.91 240.519 82.719 246.426 82.719C252.333 82.719 254.385 78.91 254.385 73.779V44.929H265.785L265.838 74.737Z" fill="white"/>
<path d="M277.26 76.995C278.971 78.7838 281.023 80.2119 283.295 81.1949C285.567 82.178 288.013 82.6962 290.488 82.719C293.521 82.719 299.04 81.419 299.04 77.451C299.04 75.17 297.307 73.984 293.909 73.391L284.399 71.863C275.915 70.495 271.285 66.002 271.285 59.251C271.285 48.213 280.225 43.651 289.985 43.651C293.781 43.6387 297.538 44.4242 301.011 45.9568C304.484 47.4893 307.596 49.7345 310.146 52.547L301.48 58.773C299.99 56.9624 298.116 55.5055 295.994 54.5076C293.872 53.5097 291.555 52.9958 289.21 53.003C286.587 53.003 282.71 54.668 282.71 57.564C282.71 60.004 284.694 61.236 289.073 61.943L293.452 62.65C302.575 64.132 310.078 66.96 310.078 75.695C310.078 89.379 297.694 92.002 289.142 92.002C285.244 92.076 281.378 91.279 277.827 89.6693C274.276 88.0595 271.129 85.6775 268.616 82.697L277.26 76.995Z" fill="white"/>
<path d="M313.18 44.929H355.623L348.53 53.801H336.58V90.679H325.131V53.801H313.18V44.929Z" fill="white"/>
<path d="M16.653 113.418C15.9834 114.65 15.039 115.71 13.893 116.518C12.4051 117.549 10.6403 118.107 8.83003 118.118C3.99503 118.118 0.0950246 114.606 0.0950246 108.448C0.0244373 107.231 0.198386 106.013 0.606595 104.864C1.0148 103.716 1.649 102.661 2.47172 101.761C3.29445 100.862 4.28903 100.137 5.39673 99.6285C6.50442 99.12 7.70278 98.8386 8.92103 98.801C10.8452 98.781 12.7191 99.4157 14.235 100.601C15.1826 101.41 15.957 102.402 16.512 103.518L12.912 105.318C12.6159 104.586 12.1465 103.936 11.544 103.425C10.8332 102.852 9.94813 102.538 9.03503 102.536C6.09303 102.536 4.47403 105.273 4.47403 108.306C4.47403 112.297 6.52703 114.281 9.03503 114.281C9.88267 114.263 10.7067 113.999 11.4072 113.521C12.1077 113.043 12.6544 112.372 12.981 111.59L16.653 113.418Z" fill="#11A63C"/>
<path d="M26.182 118.092C23.7386 117.923 21.4503 116.833 19.7791 115.043C18.108 113.252 17.1786 110.894 17.1786 108.445C17.1786 105.996 18.108 103.638 19.7791 101.847C21.4503 100.057 23.7386 98.9669 26.182 98.798C27.3148 98.7937 28.4402 98.9786 29.512 99.3451C35.077 101.261 35.442 107.327 35.442 108.468C35.454 109.914 35.1499 111.344 34.551 112.66C33.9521 113.976 33.073 115.145 31.975 116.085C30.347 117.427 28.2912 118.139 26.182 118.092ZM29.443 103.929C28.5983 103.079 27.4531 102.596 26.255 102.584C23.495 102.584 21.694 105.001 21.694 108.308C21.694 112.641 24.111 114.238 26.255 114.238C28.399 114.238 30.816 112.687 30.816 108.878C30.9885 107.115 30.4995 105.351 29.444 103.929H29.443Z" fill="#11A63C"/>
<path d="M52.842 99.368V109.562C52.9843 111.347 52.6123 113.136 51.77 114.716C50.9817 115.779 49.9475 116.635 48.7558 117.211C47.5642 117.787 46.2508 118.066 44.928 118.023C43.5086 117.984 42.115 117.634 40.846 116.997C37.334 115.197 37.334 112.002 37.357 109.516V99.368H41.9179V110.768C41.8453 111.545 41.9627 112.328 42.26 113.049C42.6053 113.487 43.0566 113.831 43.5713 114.046C44.0861 114.262 44.6473 114.343 45.202 114.281C48.302 114.281 48.302 112.16 48.327 110.746V99.345L52.842 99.368Z" fill="#11A63C"/>
<path d="M55.443 99.368H63.653C64.7192 99.2431 65.7998 99.3429 66.8251 99.661C67.8504 99.9791 68.7977 100.508 69.606 101.215C70.5581 102.351 71.0683 103.793 71.043 105.275C71.1107 106.418 70.7726 107.548 70.0884 108.466C69.4041 109.384 68.4176 110.031 67.303 110.292L71.522 117.567H66.482L62.882 111.067H60.004V117.567H55.443V99.368ZM60.004 102.768V107.694H63.767C64.118 107.741 64.4751 107.711 64.8131 107.604C65.151 107.498 65.4615 107.319 65.7225 107.08C65.9836 106.841 66.1889 106.547 66.324 106.219C66.459 105.892 66.5205 105.539 66.504 105.185C66.504 102.904 64.839 102.904 63.881 102.768H60.004Z" fill="#11A63C"/>
<path d="M83.746 99.368L90.451 117.613H85.593L84.681 114.694H77.976L77.087 117.613H72.229L79.069 99.368H83.746ZM81.283 103.701C81.055 104.613 80.804 105.571 80.53 106.506C80.142 107.874 79.458 110.018 79.048 111.387H83.609L81.283 103.701Z" fill="#11A63C"/>
<path d="M103.816 115.857C103.116 116.559 102.279 117.11 101.357 117.475C100.434 117.84 99.4471 118.011 98.456 117.978C93.37 117.978 90.246 113.85 90.246 108.49C90.1381 107.248 90.2907 105.996 90.6941 104.816C91.0974 103.636 91.7426 102.553 92.5884 101.636C93.4341 100.72 94.4619 99.99 95.6059 99.4933C96.7498 98.9966 97.9849 98.7441 99.232 98.752C100.808 98.743 102.363 99.1213 103.758 99.8536C105.154 100.586 106.349 101.65 107.237 102.952L103.793 105.005C103.391 104.227 102.782 103.575 102.034 103.121C101.286 102.666 100.427 102.427 99.551 102.428C96.107 102.428 94.784 105.302 94.784 108.335C94.6988 109.979 95.209 111.598 96.221 112.896C96.9991 113.612 97.9868 114.058 99.0382 114.169C100.09 114.28 101.149 114.05 102.059 113.512C102.509 113.216 102.878 112.814 103.132 112.34C103.387 111.866 103.52 111.336 103.519 110.798H99.459V107.468H107.373V117.568H103.815L103.816 115.857Z" fill="#11A63C"/>
<path d="M110.612 99.368H124.068V102.903H115.151V106.187H123.475V109.562H115.151V113.895H124.867V117.476H110.612V99.368Z" fill="#11A63C"/>
<path d="M145.095 99.368H152.416C155.404 99.368 158.072 99.368 159.669 101.649C160.346 102.779 160.701 104.072 160.695 105.389C160.702 106.373 160.492 107.347 160.079 108.24C158.505 111.479 155.153 111.57 152.667 111.615H149.657V117.568H145.095V99.368ZM149.656 102.721V108.238H152.393C154.081 108.238 156.156 108.238 156.156 105.364C156.156 102.49 153.856 102.718 152.598 102.718L149.656 102.721Z" fill="#11A63C"/>
<path d="M170.999 118.092C165.206 118.092 161.876 113.645 161.876 108.376C161.791 107.148 161.961 105.916 162.373 104.757C162.785 103.597 163.432 102.535 164.273 101.636C165.114 100.737 166.131 100.022 167.26 99.5331C168.39 99.0447 169.608 98.7941 170.839 98.797C171.972 98.7892 173.098 98.9741 174.169 99.344C179.734 101.26 180.099 107.326 180.099 108.467C180.114 109.911 179.813 111.34 179.218 112.656C178.624 113.972 177.749 115.141 176.655 116.084C175.061 117.392 173.061 118.102 170.999 118.092ZM174.146 103.929C173.294 103.072 172.138 102.588 170.93 102.583C168.17 102.583 166.369 105 166.369 108.307C166.369 112.64 168.786 114.237 170.93 114.237C173.074 114.237 175.491 112.686 175.491 108.877C175.672 107.119 175.195 105.356 174.151 103.93L174.146 103.929Z" fill="#11A63C"/>
<path d="M194.567 99.368C195.092 101.329 195.639 103.291 196.232 105.252C197.027 107.731 197.614 110.271 197.988 112.847C198.357 110.178 198.859 107.529 199.493 104.91C199.881 103.04 200.293 101.193 200.679 99.368H205.24L200.679 117.613H195.935C195.365 115.606 194.84 113.599 194.247 111.613C193.605 109.631 193.08 107.613 192.673 105.569C192.261 107.564 191.744 109.536 191.122 111.476L189.366 117.611H184.531L179.967 99.368H184.528C185.676 103.824 186.582 108.338 187.242 112.892C187.719 110.231 188.336 107.597 189.089 105.001L190.571 99.391L194.567 99.368Z" fill="#11A63C"/>
<path d="M206.194 99.368H219.65V102.903H210.733V106.187H219.057V109.562H210.733V113.895H220.449V117.476H206.194V99.368Z" fill="#11A63C"/>
<path d="M223.139 99.368H231.327C232.393 99.2389 233.475 99.3366 234.5 99.655C235.526 99.9733 236.473 100.505 237.279 101.215C238.247 102.344 238.766 103.789 238.739 105.275C238.802 106.417 238.462 107.545 237.779 108.462C237.095 109.379 236.111 110.026 234.999 110.292L239.264 117.567H234.224L230.624 111.067H227.769V117.567H223.209L223.139 99.368ZM227.7 102.768V107.694H231.463C231.814 107.741 232.171 107.711 232.509 107.604C232.847 107.498 233.157 107.319 233.418 107.08C233.68 106.841 233.885 106.547 234.02 106.219C234.155 105.892 234.216 105.539 234.2 105.185C234.2 102.904 232.512 102.904 231.554 102.768H227.7Z" fill="#11A63C"/>
<path d="M259.242 99.368H266.631C269.619 99.368 272.287 99.368 273.883 101.649C274.56 102.779 274.915 104.072 274.909 105.389C274.916 106.373 274.706 107.347 274.293 108.24C272.719 111.479 269.367 111.57 266.881 111.615H263.871V117.568H259.31L259.242 99.368ZM263.803 102.721V108.238H266.631C268.319 108.238 270.394 108.238 270.394 105.364C270.394 102.49 267.999 102.718 266.631 102.718L263.803 102.721Z" fill="#11A63C"/>
<path d="M276.187 99.3669H284.397C285.463 99.2391 286.545 99.3375 287.57 99.6558C288.596 99.974 289.543 100.505 290.35 101.214C291.302 102.35 291.812 103.792 291.787 105.274C291.855 106.417 291.517 107.547 290.832 108.465C290.148 109.383 289.162 110.029 288.047 110.291L292.266 117.566H287.159L283.559 111.066H280.685V117.566H276.119L276.187 99.3669ZM280.748 102.767V107.693H284.511C284.862 107.74 285.219 107.71 285.557 107.604C285.895 107.498 286.206 107.319 286.467 107.079C286.728 106.84 286.933 106.546 287.068 106.219C287.203 105.891 287.265 105.538 287.248 105.184C287.248 102.903 285.583 102.903 284.625 102.767H280.748Z" fill="#11A63C"/>
<path d="M299.29 99.368V117.613H294.729V99.368H299.29Z" fill="#11A63C"/>
<path d="M303.122 99.368H308.915C311.718 99.1103 314.519 99.8715 316.806 101.512C317.704 102.401 318.402 103.471 318.854 104.651C319.307 105.83 319.502 107.093 319.429 108.354C319.44 109.542 319.278 110.725 318.95 111.866C318.398 113.682 317.231 115.249 315.65 116.298C314.068 117.347 312.17 117.812 310.283 117.613H303.122V99.368ZM307.683 103.2V113.9H309.074C311.514 113.9 314.867 113.74 314.867 108.495C314.955 107.199 314.619 105.91 313.909 104.823C313.375 104.205 312.694 103.733 311.928 103.45C311.162 103.167 310.337 103.082 309.53 103.204L307.683 103.2Z" fill="#11A63C"/>
<path d="M322.234 99.368H335.716V102.903H326.796V106.187H335.052V109.562H326.728V113.895H336.444V117.476H322.166L322.234 99.368Z" fill="#11A63C"/>
<path d="M134.969 111.09C136.392 111.09 137.546 109.936 137.546 108.513C137.546 107.09 136.392 105.936 134.969 105.936C133.546 105.936 132.392 107.09 132.392 108.513C132.392 109.936 133.546 111.09 134.969 111.09Z" fill="#11A63C"/>
<path d="M248.956 111.09C250.379 111.09 251.533 109.936 251.533 108.513C251.533 107.09 250.379 105.936 248.956 105.936C247.533 105.936 246.379 107.09 246.379 108.513C246.379 109.936 247.533 111.09 248.956 111.09Z" fill="#11A63C"/>
</mask>
<g mask="url(#mask0_2_38)">
<rect x="-15" y="326" width="345" height="424" transform="rotate(-90 -15 326)" fill="url(#paint0_linear_2_38)"/>
</g>
</g>
<defs>
<linearGradient id="paint0_linear_2_38" x1="157.5" y1="326" x2="157.5" y2="750" gradientUnits="userSpaceOnUse">
<stop stop-color="#D53948"/>
<stop offset="0.180473" stop-color="#EC744C"/>
<stop offset="0.373767" stop-color="#F9DD4A"/>
<stop offset="0.559172" stop-color="#42903A"/>
<stop offset="0.791913" stop-color="#1836D0"/>
<stop offset="1" stop-color="#6D188D"/>
</linearGradient>
<clipPath id="clip0_2_38">
<rect width="378.406" height="118.115" fill="white"/>
</clipPath>
</defs>
</svg>
