<svg xmlns="http://www.w3.org/2000/svg" width="150.806" height="47.072" viewBox="0 0 150.806 47.072"><defs><style>.a{fill:#11a63c;}.b{fill:#fff;}</style></defs><g transform="translate(0.03 39.356)"><path class="a" d="M63.728,95.106a3.636,3.636,0,0,1-1.1,1.236,3.581,3.581,0,0,1-2.018.636c-1.927,0-3.481-1.4-3.481-3.854a3.636,3.636,0,0,1,3.517-3.845A3.381,3.381,0,0,1,62.765,90a3.69,3.69,0,0,1,.909,1.163l-1.436.718a1.945,1.945,0,0,0-.545-.754,1.6,1.6,0,0,0-1-.354c-1.172,0-1.818,1.091-1.818,2.3,0,1.591.818,2.381,1.818,2.381a1.745,1.745,0,0,0,1.572-1.072Z" transform="translate(-57.123 -89.262)"/><path class="a" d="M68.21,96.969a3.854,3.854,0,0,1,0-7.689,4.054,4.054,0,0,1,1.327.218A3.824,3.824,0,0,1,71.9,93.134a3.954,3.954,0,0,1-1.382,3.036,3.508,3.508,0,0,1-2.309.8Zm1.3-5.644a1.818,1.818,0,0,0-1.272-.536c-1.1,0-1.818.963-1.818,2.281,0,1.727.963,2.363,1.818,2.363A1.883,1.883,0,0,0,70.055,93.3,2.845,2.845,0,0,0,69.51,91.325Z" transform="translate(-57.806 -89.262)"/><path class="a" d="M79.641,89.529v4.063a3.736,3.736,0,0,1-.427,2.054,3.263,3.263,0,0,1-2.727,1.318,3.863,3.863,0,0,1-1.627-.409c-1.4-.718-1.4-1.991-1.391-2.981V89.529h1.818v4.545a1.918,1.918,0,0,0,.136.909,1.309,1.309,0,0,0,1.173.491c1.236,0,1.236-.845,1.245-1.409V89.52Z" transform="translate(-58.612 -89.284)"/><path class="a" d="M81.4,89.528h3.272a3.063,3.063,0,0,1,2.372.736,2.454,2.454,0,0,1,.573,1.618,1.936,1.936,0,0,1-1.491,2l1.681,2.9H85.8l-1.436-2.59H83.218v2.59H81.4Zm1.818,1.354v1.963h1.5a.963.963,0,0,0,1.091-1c0-.909-.664-.909-1.045-.963Z" transform="translate(-59.335 -89.282)"/><path class="a" d="M93.35,89.53,96.022,96.8H94.086l-.364-1.163H91.05L90.7,96.8H88.76l2.727-7.271Zm-.982,1.727c-.091.364-.191.745-.3,1.118-.155.545-.427,1.4-.591,1.945H93.3Z" transform="translate(-60.005 -89.285)"/><path class="a" d="M102.067,96.077a2.881,2.881,0,0,1-2.136.845c-2.027,0-3.272-1.645-3.272-3.781a3.572,3.572,0,0,1,3.581-3.881,3.836,3.836,0,0,1,3.19,1.672l-1.372.818a1.9,1.9,0,0,0-1.691-1.027c-1.372,0-1.9,1.145-1.9,2.354A2.727,2.727,0,0,0,99.04,94.9a1.963,1.963,0,0,0,2.327.245,1.291,1.291,0,0,0,.582-1.082h-1.618V92.732h3.154v4.026h-1.418Z" transform="translate(-60.723 -89.26)"/><path class="a" d="M105.59,89.53h5.363v1.409H107.4v1.309h3.318v1.345H107.4V95.32h3.872v1.427H105.59Z" transform="translate(-61.538 -89.285)"/><path class="a" d="M120.71,89.53h2.918c1.191,0,2.254,0,2.89.909a2.872,2.872,0,0,1,.409,1.491,2.663,2.663,0,0,1-.245,1.136c-.627,1.291-1.963,1.327-2.954,1.345h-1.2v2.372H120.71Zm1.818,1.336v2.2h1.091c.673,0,1.5,0,1.5-1.145s-.918-1.054-1.418-1.054Z" transform="translate(-62.916 -89.285)"/><path class="a" d="M131.7,96.969a3.846,3.846,0,0,1-.064-7.689,3.981,3.981,0,0,1,1.327.218,3.824,3.824,0,0,1,2.363,3.636,3.954,3.954,0,0,1-1.372,3.036A3.527,3.527,0,0,1,131.7,96.969Zm1.254-5.644a1.818,1.818,0,0,0-1.282-.536c-1.1,0-1.818.963-1.818,2.281,0,1.727.963,2.363,1.818,2.363A1.883,1.883,0,0,0,133.5,93.3,2.845,2.845,0,0,0,132.959,91.325Z" transform="translate(-63.585 -89.262)"/><path class="a" d="M141.817,89.53c.209.782.427,1.563.663,2.345a18.7,18.7,0,0,1,.7,3.027,32.1,32.1,0,0,1,.6-3.163c.154-.745.318-1.482.473-2.209h1.818L144.253,96.8h-1.891c-.227-.8-.436-1.6-.673-2.39A21.34,21.34,0,0,1,141.063,92a22.86,22.86,0,0,1-.618,2.354l-.7,2.445h-1.927L136,89.53h1.818a50.9,50.9,0,0,1,1.082,5.39,30.835,30.835,0,0,1,.736-3.145l.591-2.236Z" transform="translate(-64.308 -89.285)"/><path class="a" d="M147.5,89.53h5.363v1.409h-3.554v1.309h3.317v1.345h-3.317V95.32h3.872v1.427H147.5Z" transform="translate(-65.356 -89.285)"/><path class="a" d="M154.93,89.528h3.263a3.036,3.036,0,0,1,2.372.736,2.418,2.418,0,0,1,.582,1.618,1.945,1.945,0,0,1-1.491,2l1.7,2.9h-2.009l-1.436-2.59h-1.136v2.59h-1.818Zm1.818,1.354v1.963h1.5a.963.963,0,0,0,1.091-1c0-.909-.673-.909-1.054-.963Z" transform="translate(-66.033 -89.282)"/><path class="a" d="M170.76,89.53H173.7c1.191,0,2.254,0,2.89.909A2.872,2.872,0,0,1,177,91.93a2.664,2.664,0,0,1-.245,1.136c-.627,1.291-1.963,1.327-2.954,1.345h-1.2v2.372h-1.818Zm1.818,1.336v2.2H173.7c.673,0,1.5,0,1.5-1.145s-.954-1.054-1.5-1.054Z" transform="translate(-67.475 -89.285)"/><path class="a" d="M178.187,89.528h3.272a3.045,3.045,0,0,1,2.372.736,2.454,2.454,0,0,1,.573,1.618,1.936,1.936,0,0,1-1.491,2l1.681,2.9h-2.036l-1.436-2.59h-1.145v2.59H178.16Zm1.818,1.354v1.963h1.5a.963.963,0,0,0,1.091-1c0-.909-.664-.909-1.045-.963Z" transform="translate(-68.149 -89.282)"/><path class="a" d="M188.138,89.53V96.8H186.32V89.53Z" transform="translate(-68.892 -89.285)"/><path class="a" d="M190,89.528h2.309a4.663,4.663,0,0,1,3.145.854,3.545,3.545,0,0,1,1.045,2.727,4.9,4.9,0,0,1-.191,1.4,3.254,3.254,0,0,1-3.454,2.29H190Zm1.818,1.527v4.263h.554c.973,0,2.309-.064,2.309-2.154A2.381,2.381,0,0,0,194.3,91.7a1.927,1.927,0,0,0-1.745-.645Z" transform="translate(-69.227 -89.283)"/><path class="a" d="M198.377,89.53h5.372v1.409H200.2v1.309h3.29v1.345h-3.318V95.32h3.872v1.427h-5.69Z" transform="translate(-69.988 -89.285)"/><circle class="a" cx="1.027" cy="1.027" r="1.027" transform="translate(52.732 2.863)"/><circle class="a" cx="1.027" cy="1.027" r="1.027" transform="translate(98.159 2.863)"/></g><path class="a" d="M163.61,7.189,157.52,0H140.56l6.081,7.189-6.081,7.189h16.96Z" transform="translate(-12.804)"/><path class="b" d="M0,19.7H4.554V34.088h7.7v3.845H0Z" transform="translate(0 -1.795)"/><rect class="b" width="4.554" height="18.233" transform="translate(13.988 17.905)"/><path class="b" d="M88.5,84.351c-5.808,0-9.216-4.545-9.216-9.625S82.661,65.1,88.5,65.1s9.216,4.545,9.216,9.625-3.4,9.625-9.216,9.625m0-15.451c-2.663,0-4.654,1.691-4.654,5.781,0,2.663,1.072,5.79,4.654,5.79,3.381,0,4.663-2.972,4.663-5.79S91.877,68.9,88.5,68.9" transform="translate(-59.111 -47.704)"/><path class="b" d="M44.37,19.7h4.608L55.6,31.352h.055V19.7H59.8V37.933H55.25l-6.68-11.47h-.055v11.47H44.37Z" transform="translate(-4.042 -1.795)"/><path class="b" d="M63.27,19.7H77.349v3.536H72.586v14.7H68.024v-14.7H63.27Z" transform="translate(-5.763 -1.795)"/><path class="b" d="M137.79,65.66h9.089c4.1,0,6.608,1.9,6.608,5.99a5.035,5.035,0,0,1-3.69,4.917l4.172,7.326h-5.1l-3.617-6.553h-2.89v6.553h-4.545Zm4.545,8.3h4.172a2.463,2.463,0,0,0,0-4.917h-4.172Z" transform="translate(-64.441 -47.755)"/><path class="b" d="M172.1,77.539c0,5-4.217,6.862-7.726,6.862s-7.708-1.818-7.708-6.862V65.66h4.545v11.5c0,2.045.8,3.563,3.154,3.563s3.172-1.518,3.172-3.563V65.66h4.545Z" transform="translate(-66.161 -47.755)"/><path class="b" d="M178.315,78.388a7.389,7.389,0,0,0,5.272,2.281c1.209,0,3.408-.518,3.408-2.1,0-.909-.691-1.382-2.045-1.618l-3.79-.609c-3.381-.545-5.226-2.336-5.226-5.026,0-4.4,3.563-6.217,7.453-6.217a10.8,10.8,0,0,1,8.035,3.545l-3.454,2.481a6.308,6.308,0,0,0-4.89-2.3c-1.045,0-2.59.664-2.59,1.818,0,.973.791,1.463,2.536,1.745l1.745.282c3.636.591,6.626,1.718,6.626,5.2,0,5.453-4.935,6.5-8.344,6.5a10.443,10.443,0,0,1-8.18-3.708Z" transform="translate(-67.819 -47.704)"/><path class="b" d="M137.32,19.7h16.915l-2.827,3.536h-4.763v14.7h-4.563v-14.7H137.32Z" transform="translate(-12.509 -1.795)"/></svg>