<svg width="32" height="23" viewBox="0 0 32 23" fill="none" xmlns="http://www.w3.org/2000/svg">
<path d="M2.03613 13.8906L4.36035 19.6914L6.68457 13.8906H7.90039V21H6.96289V18.2314L7.05078 15.2432L4.7168 21H3.99902L1.66992 15.2578L1.7627 18.2314V21H0.825195V13.8906H2.03613ZM14.8742 17.7139H11.7932V20.2334H15.3723V21H10.8557V13.8906H15.3234V14.6621H11.7932V16.9473H14.8742V17.7139ZM23.3031 21H22.3607L18.7816 15.5215V21H17.8393V13.8906H18.7816L22.3705 19.3936V13.8906H23.3031V21ZM31.273 13.8906V18.7246C31.2698 19.3952 31.0582 19.9437 30.6383 20.3701C30.2216 20.7965 29.6552 21.0358 28.9391 21.0879L28.69 21.0977C27.912 21.0977 27.2919 20.8877 26.8297 20.4678C26.3674 20.0479 26.1331 19.4701 26.1266 18.7344V13.8906H27.0543V18.7051C27.0543 19.2194 27.1959 19.6198 27.4791 19.9062C27.7623 20.1895 28.166 20.3311 28.69 20.3311C29.2206 20.3311 29.6259 20.1895 29.9059 19.9062C30.1891 19.623 30.3307 19.2243 30.3307 18.71V13.8906H31.273Z" fill="white"/>
<path d="M32 0H0V2H32V0Z" fill="white"/>
<path d="M32 8H0V10H32V8Z" fill="white"/>
</svg>
