<svg xmlns="http://www.w3.org/2000/svg" width="21" height="21" viewBox="0 0 21 21"><defs><style>.a{fill:#10a047;}</style></defs><g transform="translate(-0.5 -0.5)"><path class="a" d="M11,.5a10.5,10.5,0,1,0,7.425,3.075A10.5,10.5,0,0,0,11,.5ZM6.5,18.785v-1.5A2.407,2.407,0,0,1,8.75,14.75h4.5a2.407,2.407,0,0,1,2.25,2.542v1.5a8.925,8.925,0,0,1-9,0ZM17,17.69v-.458a3.9,3.9,0,0,0-3.75-3.983H8.75A3.9,3.9,0,0,0,5,17.233V17.7a9,9,0,1,1,12,0ZM11,4.25a3.75,3.75,0,1,0,2.652,1.1A3.75,3.75,0,0,0,11,4.25Zm0,6a2.25,2.25,0,1,1,1.591-.659A2.25,2.25,0,0,1,11,10.25Z"/></g></svg>